<svg width="512" height="512" viewBox="0 0 512 512" fill="none" xmlns="http://www.w3.org/2000/svg">
<rect width="512" height="512" rx="64" fill="white"/>
<path d="M222.073 142.147L210.461 137.235C225.199 124.284 250.393 120.827 279.682 127.857C313.176 135.895 341.311 175.195 325.68 215.834C314.317 245.378 317.94 277.016 318.535 289.521C309.603 285.948 308.71 281.929 306.924 280.589C305.137 279.249 305.584 264.958 306.924 258.706C307.996 253.704 304.095 243.225 302.011 238.61C351.582 143.487 247.528 122.944 222.073 142.147Z" fill="black"/>
<path d="M307.37 218.067C323.894 147.06 256.46 131.429 226.538 145.273C221.179 147.753 220.623 158.117 228.325 156.885C328.807 140.808 301.929 241.45 307.37 218.067Z" fill="black"/>
<path d="M209.568 158.671C209.27 161.648 209.925 168.049 214.927 169.836C221.179 172.069 242.169 173.408 267.624 218.514C268.884 220.746 274.223 217.62 273.43 215.387C267.029 197.375 245.295 160.815 209.568 158.671Z" fill="black"/>
<circle cx="277.896" cy="226.552" r="6.2522" fill="black"/>
<path d="M297.581 186.577C282.74 152.756 245.849 156.761 226.092 162.547L270.886 216.838C271.64 216.244 274.234 215.147 278.577 215.503C282.921 215.859 284.61 220.398 284.912 222.623L278.577 247.988C280.387 246.653 316.132 228.853 297.581 186.577Z" fill="black"/>
<path d="M228.771 298.452C229.367 296.964 229.486 289.163 225.199 269.871C227.342 269.871 243.657 261.237 251.547 256.92C251.101 261.237 250.475 272.104 251.547 281.036C252.887 292.2 260.925 279.696 256.906 301.132C252.887 322.568 208.675 329.713 212.248 316.316C215.106 305.598 224.454 299.941 228.771 298.452Z" fill="black"/>
<path fill-rule="evenodd" clip-rule="evenodd" d="M212.248 188.146C210.312 186.657 206.353 189.664 205.995 213.601C203.762 216.727 199.029 223.247 197.957 224.319C196.885 225.391 199.892 228.338 201.53 229.678C202.083 231.339 202.472 232.918 202.826 234.353C203.898 238.705 204.645 241.736 208.675 241.736C213.877 241.736 208.079 244.415 204.656 244.862C203.762 250.221 203.316 261.386 208.675 263.172C215.374 265.405 231.897 269.871 250.207 251.561C250.654 250.817 251.547 247.81 251.547 241.736L253.78 231.464C238.533 219.635 238.915 214.924 239.259 210.681C239.499 207.716 239.721 204.98 234.577 200.203C224.573 190.914 215.523 188.295 212.248 188.146ZM214.481 216.281L224.305 213.601C224.157 211.815 223.234 207.885 220.733 206.456C218.232 205.027 214.034 205.86 212.248 206.456C212.099 208.837 212.337 214.137 214.481 216.281Z" fill="black"/>
<path d="M199.297 329.267C197.064 321.675 201.976 314.976 209.122 311.403C202.423 321.675 207.284 325.453 212.248 326.587C227.878 330.16 247.081 322.121 263.158 308.277C248.868 332.393 226.079 337.455 222.519 337.752C217.16 338.199 202.284 339.424 199.297 329.267Z" fill="black"/>
<path fill-rule="evenodd" clip-rule="evenodd" d="M221.626 176.055C219.691 173.971 215.016 170.428 211.801 172.929C208.586 175.43 207.186 180.223 206.889 182.307C207.782 184.689 210.015 188.738 211.801 185.88C213.587 183.022 216.713 182.307 218.053 182.307C217.458 183.349 217.339 186.148 221.626 189.006C225.913 191.864 227.58 190.197 227.878 189.006C229.367 188.262 232.701 187.845 234.13 192.132C234.499 193.238 234.678 194.136 234.839 194.945C235.457 198.056 235.819 199.874 245.742 207.316C244.997 207.614 243.955 209.549 245.742 214.908C247.974 221.607 249.761 225.626 253.78 228.305L256.46 225.179C258.246 227.859 261.729 234.2 261.372 238.13C261.015 242.06 257.948 245.127 256.46 246.169C255.566 253.612 254.316 269.57 256.46 273.857C258.603 278.144 259.139 281.929 258.246 283.268C258.305 283.462 258.368 283.675 258.436 283.903C259.042 285.957 260.014 289.253 262.265 290.86C263.608 291.82 263.055 292.773 262.235 294.186C261.147 296.062 259.589 298.747 261.372 303.332C263.873 309.763 272.537 314.943 276.556 316.729C277.449 318.367 278.074 322.714 273.43 327.001C268.785 331.288 269.113 335.635 269.857 337.272C273.876 328.787 285.041 319.855 287.721 324.768C289.864 328.698 286.827 335.337 285.041 338.165C286.083 338.463 289.507 338.076 294.866 334.146C298.706 331.33 299.024 320.147 299.185 314.482C299.305 310.266 299.338 309.107 300.672 316.729C303.172 331.02 310.943 335.486 314.516 335.933C315.558 335.784 317.017 334.95 314.516 332.806C311.39 330.127 304.691 310.924 305.137 303.332C305.584 295.74 304.691 287.255 297.545 273.857C292.756 264.878 289.572 263.923 286.245 262.925C284.608 262.434 282.936 261.932 281.022 260.46C275.216 255.994 272.09 240.81 271.643 237.237C271.286 234.379 270.006 228.008 269.411 225.179C268.369 226.221 265.749 227.323 263.605 223.393C262.526 221.415 262.606 221.102 262.736 220.589C262.929 219.828 263.234 218.626 260.032 210.889C255.745 200.528 249.91 196.151 247.528 195.258C242.526 185.612 237.108 182.605 235.023 182.307C235.917 183.796 236.81 185.522 233.237 180.521C229.664 175.519 224.008 175.459 221.626 176.055ZM279.682 264.925C279.82 265.018 279.96 265.115 280.104 265.216C279.959 265.108 279.819 265.011 279.682 264.925ZM280.104 265.216C285.987 269.621 297.85 292.338 298.439 299.313C298.788 282.532 286.624 269.8 280.104 265.216ZM266.285 297.08C264.945 299.908 265.213 306.637 277.003 310.924L266.285 297.08Z" fill="black"/>
<path d="M180.093 372.586V345.79H335.059V359.188V372.586L307.37 380.624H207.335L180.093 372.586Z" fill="black"/>
<circle cx="215.374" cy="390.896" r="6.2522" fill="black"/>
<circle cx="232.344" cy="390.896" r="6.2522" fill="black"/>
<circle cx="249.314" cy="390.896" r="6.2522" fill="black"/>
<circle cx="266.284" cy="390.896" r="6.2522" fill="black"/>
<circle cx="283.255" cy="390.896" r="6.2522" fill="black"/>
<circle cx="300.225" cy="390.896" r="6.2522" fill="black"/>
<path fill-rule="evenodd" clip-rule="evenodd" d="M221.626 420.409C217.397 419.527 213.227 418.485 209.122 417.29L209.122 399.827H221.626V420.409ZM238.596 423.048C234.38 422.613 230.21 422.02 226.092 421.278V399.827H238.596V423.048ZM255.566 423.942C251.36 423.931 247.19 423.765 243.062 423.45V399.827H255.566V423.942ZM272.537 423.138C268.411 423.542 264.241 423.797 260.032 423.896V399.827H272.537V423.138ZM289.507 420.593C285.392 421.428 281.221 422.113 277.003 422.64V399.827H289.507V420.593ZM306.477 416.206C302.375 417.501 298.205 418.642 293.973 419.622V399.827H306.477V416.206Z" fill="black"/>
<path fill-rule="evenodd" clip-rule="evenodd" d="M256.013 445.379C360.343 445.379 444.919 360.803 444.919 256.473C444.919 152.144 360.343 67.5675 256.013 67.5675C151.683 67.5675 67.1072 152.144 67.1072 256.473C67.1072 360.803 151.683 445.379 256.013 445.379ZM256.013 423.943C348.504 423.943 423.483 348.964 423.483 256.473C423.483 163.982 348.504 89.0036 256.013 89.0036C163.522 89.0036 88.5434 163.982 88.5434 256.473C88.5434 348.964 163.522 423.943 256.013 423.943Z" fill="black"/>
<path d="M244.848 56.8494C244.848 60.8687 245.578 68.9073 240.383 68.9073H272.09C266.731 68.9073 267.624 60.4221 267.624 56.8494C267.624 53.2768 244.848 52.8302 244.848 56.8494Z" fill="black"/>
<path d="M267.652 455.651C267.652 451.631 266.922 443.593 272.117 443.593L240.41 443.593C245.769 443.593 244.876 452.078 244.876 455.651C244.876 459.223 267.652 459.67 267.652 455.651Z" fill="black"/>
<path d="M455.651 244.848C451.631 244.848 443.593 245.578 443.593 240.383L443.593 272.09C443.593 266.731 452.078 267.624 455.651 267.624C459.223 267.624 459.67 244.848 455.651 244.848Z" fill="black"/>
<path d="M56.8495 267.652C60.8687 267.652 68.9073 266.922 68.9073 272.117L68.9073 240.41C68.9073 245.769 60.4221 244.876 56.8495 244.876C53.2768 244.876 52.8302 267.652 56.8495 267.652Z" fill="black"/>
<path d="M389.185 107.19C386.343 110.032 381.175 116.232 377.501 112.559L399.922 134.979C396.133 131.19 402.764 125.822 405.29 123.295C407.817 120.769 392.027 104.348 389.185 107.19Z" fill="black"/>
<path d="M123.315 405.31C126.157 402.468 131.325 396.268 134.999 399.941L112.578 377.521C116.367 381.31 109.736 386.678 107.21 389.205C104.683 391.731 120.473 408.152 123.315 405.31Z" fill="black"/>
<path d="M405.31 389.185C402.468 386.343 396.268 381.175 399.941 377.501L377.521 399.922C381.31 396.133 386.678 402.764 389.205 405.29C391.731 407.817 408.152 392.027 405.31 389.185Z" fill="black"/>
<path d="M107.19 123.315C110.032 126.157 116.232 131.325 112.559 134.999L134.979 112.578C131.19 116.367 125.822 109.736 123.295 107.21C120.769 104.683 104.348 120.473 107.19 123.315Z" fill="black"/>
<path d="M296.846 60.6929C295.805 64.5752 294.429 72.5286 289.411 71.184L320.038 79.3905C314.862 78.0035 317.921 70.0387 318.845 66.5877C319.77 63.1368 297.886 56.8106 296.846 60.6929Z" fill="black"/>
<path d="M215.654 451.807C216.695 447.925 218.071 439.971 223.089 441.316L192.462 433.109C197.638 434.497 194.579 442.461 193.655 445.912C192.73 449.363 214.614 455.689 215.654 451.807Z" fill="black"/>
<path d="M451.807 296.846C447.925 295.805 439.971 294.429 441.316 289.411L433.109 320.038C434.496 314.862 442.461 317.921 445.912 318.845C449.363 319.77 455.689 297.886 451.807 296.846Z" fill="black"/>
<path d="M60.6929 215.654C64.5753 216.695 72.5286 218.071 71.184 223.089L79.3906 192.462C78.0035 197.638 70.0387 194.579 66.5878 193.655C63.1368 192.73 56.8106 214.614 60.6929 215.654Z" fill="black"/>
<path d="M423.235 146.676C419.754 148.685 413.157 153.336 410.56 148.837L426.414 176.297C423.734 171.656 431.529 168.186 434.623 166.4C437.717 164.614 426.716 144.666 423.235 146.676Z" fill="black"/>
<path d="M89.2648 365.824C92.7456 363.815 99.3426 359.164 101.94 363.663L86.0863 336.203C88.7658 340.844 80.9709 344.314 77.8768 346.1C74.7828 347.886 85.784 367.834 89.2648 365.824Z" fill="black"/>
<path d="M365.824 423.235C363.815 419.754 359.164 413.157 363.663 410.56L336.203 426.414C340.844 423.734 344.314 431.529 346.1 434.623C347.886 437.717 367.834 426.716 365.824 423.235Z" fill="black"/>
<path d="M146.676 89.2648C148.685 92.7456 153.336 99.3426 148.837 101.94L176.297 86.0863C171.656 88.7658 168.186 80.9709 166.4 77.8769C164.614 74.7828 144.666 85.784 146.676 89.2648Z" fill="black"/>
<path d="M346.076 77.8633C344.067 81.3441 340.679 88.6702 336.18 86.0727L363.639 101.926C358.998 99.247 364.014 92.3452 365.801 89.2512C367.587 86.1572 348.086 74.3825 346.076 77.8633Z" fill="black"/>
<path d="M166.424 434.637C168.433 431.156 171.821 423.83 176.32 426.427L148.861 410.574C153.502 413.253 148.486 420.155 146.699 423.249C144.913 426.343 164.414 438.118 166.424 434.637Z" fill="black"/>
<path d="M434.637 346.076C431.156 344.067 423.83 340.679 426.427 336.18L410.574 363.639C413.253 358.998 420.155 364.014 423.249 365.801C426.343 367.587 438.118 348.086 434.637 346.076Z" fill="black"/>
<path d="M77.8633 166.424C81.3441 168.433 88.6702 171.821 86.0727 176.32L101.926 148.861C99.247 153.502 92.3452 148.486 89.2512 146.699C86.1572 144.913 74.3825 164.414 77.8633 166.424Z" fill="black"/>
<path d="M445.905 193.628C442.023 194.668 434.447 197.453 433.102 192.435L441.309 223.063C439.922 217.886 448.349 216.553 451.8 215.628C455.251 214.703 449.787 192.588 445.905 193.628Z" fill="black"/>
<path d="M66.5947 318.872C70.4771 317.831 78.053 315.047 79.3975 320.065L71.191 289.437C72.578 294.614 64.1509 295.947 60.6999 296.872C57.249 297.797 62.7124 319.912 66.5947 318.872Z" fill="black"/>
<path d="M318.872 445.905C317.832 442.023 315.047 434.447 320.065 433.102L289.438 441.309C294.614 439.922 295.947 448.349 296.872 451.8C297.797 455.251 319.912 449.787 318.872 445.905Z" fill="black"/>
<path d="M193.628 66.5948C194.669 70.4771 197.453 78.053 192.435 79.3976L223.063 71.191C217.886 72.5781 216.553 64.1509 215.628 60.6999C214.703 57.249 192.588 62.7124 193.628 66.5948Z" fill="black"/>
</svg>
