<svg width="963" height="292" viewBox="0 0 963 292" fill="none" xmlns="http://www.w3.org/2000/svg">
<path d="M280.046 163C276.1 163 273.113 162.52 271.086 161.56C269.166 160.493 267.78 158.627 266.926 155.96C266.073 153.293 265.646 149.24 265.646 143.8V57.4H280.046V143.8C280.046 149.24 280.793 153.293 282.286 155.96C283.78 158.52 286.766 159.8 291.246 159.8H294.446V163H280.046ZM310.951 107C310.951 101.56 310.205 97.56 308.711 95C307.218 92.3333 304.231 91 299.751 91H296.551V87.8H310.951C314.898 87.8 317.885 88.3333 319.911 89.4C322.045 90.4667 323.591 92.0667 324.551 94.2H325.351C327.591 91.96 330.471 90.0933 333.991 88.6C337.618 87 341.671 86.2 346.151 86.2C354.151 86.2 360.658 88.3333 365.671 92.6C370.791 96.8667 373.351 104.333 373.351 115V163H358.951V115C358.951 107.533 357.245 102.093 353.831 98.68C350.525 95.16 346.365 93.4 341.351 93.4C335.698 93.4 330.365 96.2267 325.351 101.88V163H310.951V107ZM423.423 195C412.649 195 404.063 193.027 397.663 189.08C391.369 185.133 388.223 178.84 388.223 170.2C388.223 165.293 389.876 161.027 393.183 157.4C396.489 153.773 400.703 151.107 405.823 149.4C401.556 147.053 399.423 143.853 399.423 139.8C399.423 137.667 399.903 136.013 400.863 134.84C401.823 133.667 403.209 132.387 405.023 131C401.609 129.293 398.729 126.627 396.383 123C394.143 119.373 393.023 115.107 393.023 110.2C393.023 94.2 403.156 86.2 423.423 86.2H453.023V90.2L442.623 91.8V92.6C445.929 94.3067 448.596 96.7067 450.623 99.8C452.756 102.787 453.823 106.253 453.823 110.2C453.823 126.2 443.689 134.2 423.423 134.2C412.223 134.2 406.623 136.067 406.623 139.8C406.623 143.533 412.223 145.4 423.423 145.4C433.769 145.4 442.196 147.48 448.703 151.64C455.316 155.693 458.623 161.88 458.623 170.2C458.623 178.84 455.423 185.133 449.023 189.08C442.729 193.027 434.196 195 423.423 195ZM423.423 128.6C428.223 128.6 432.063 127.16 434.943 124.28C437.929 121.293 439.423 116.6 439.423 110.2C439.423 104.12 437.929 99.5333 434.943 96.44C432.063 93.3467 428.223 91.8 423.423 91.8C418.623 91.8 414.729 93.2933 411.743 96.28C408.863 99.16 407.423 103.8 407.423 110.2C407.423 116.6 408.863 121.293 411.743 124.28C414.729 127.16 418.623 128.6 423.423 128.6ZM423.423 188.6C429.823 188.6 434.889 187.053 438.623 183.96C442.356 180.973 444.223 176.387 444.223 170.2C444.223 159.533 437.823 153.4 425.023 151.8L416.223 151C411.849 152.707 408.489 155.107 406.143 158.2C403.796 161.293 402.623 165.293 402.623 170.2C402.623 176.387 404.489 180.973 408.223 183.96C411.956 187.053 417.023 188.6 423.423 188.6ZM503.613 164.6C496.359 164.6 490.226 162.893 485.213 159.48C480.199 155.96 476.413 151.267 473.853 145.4C471.293 139.427 470.013 132.76 470.013 125.4C470.013 118.147 471.293 111.533 473.853 105.56C476.413 99.5867 480.093 94.8933 484.893 91.48C489.799 87.96 495.506 86.2 502.013 86.2C512.786 86.2 520.786 89.24 526.013 95.32C531.346 101.293 534.013 109.987 534.013 121.4L533.693 127.8H485.213C485.213 136.76 487.133 144.067 490.973 149.72C494.813 155.373 500.093 158.2 506.813 158.2C511.826 158.2 516.039 157.133 519.453 155C522.973 152.867 526.226 149.667 529.213 145.4L532.413 147.8C528.893 153.667 524.786 157.933 520.093 160.6C515.399 163.267 509.906 164.6 503.613 164.6ZM518.813 121.4C518.813 112.013 517.426 104.867 514.653 99.96C511.879 95.0533 507.666 92.6 502.013 92.6C498.813 92.6 495.933 93.88 493.373 96.44C490.813 98.8933 488.786 102.307 487.293 106.68C485.906 111.053 485.213 115.96 485.213 121.4H518.813ZM554.858 107C554.858 101.56 554.111 97.56 552.618 95C551.124 92.3333 548.138 91 543.658 91H540.457V87.8H554.858C558.804 87.8 561.791 88.3333 563.818 89.4C565.951 90.4667 567.498 92.0667 568.458 94.2H569.258C571.498 91.96 574.378 90.0933 577.898 88.6C581.524 87 585.578 86.2 590.058 86.2C598.058 86.2 604.564 88.3333 609.578 92.6C614.698 96.8667 617.258 104.333 617.258 115V163H602.858V115C602.858 107.533 601.151 102.093 597.738 98.68C594.431 95.16 590.271 93.4 585.258 93.4C579.604 93.4 574.271 96.2267 569.258 101.88V163H554.858V107ZM647.969 78.2C645.515 78.2 643.382 77.1867 641.569 75.16C639.862 73.1333 639.009 70.7333 639.009 67.96C639.009 65.72 639.649 63.96 640.929 62.68C642.315 61.4 644.129 60.76 646.369 60.76C648.822 60.76 650.902 61.7733 652.609 63.8C654.422 65.8267 655.329 68.2267 655.329 71C655.329 73.24 654.635 75 653.249 76.28C651.969 77.56 650.209 78.2 647.969 78.2ZM641.889 107C641.889 101.56 641.142 97.56 639.649 95C638.155 92.3333 635.169 91 630.689 91H627.489V87.8H641.889C645.835 87.8 648.769 88.3333 650.689 89.4C652.715 90.36 654.155 92.1733 655.009 94.84C655.862 97.5067 656.289 101.56 656.289 107V163H641.889V107ZM706.224 164.6C698.224 164.6 691.664 162.467 686.544 158.2C681.53 153.933 679.024 146.467 679.024 135.8V107C679.024 101.56 678.277 97.56 676.784 95C675.29 92.3333 672.304 91 667.824 91H666.224V87.8H679.024C682.97 87.8 685.904 88.3333 687.824 89.4C689.85 90.36 691.29 92.1733 692.144 94.84C692.997 97.5067 693.424 101.56 693.424 107V135.8C693.424 143.267 695.077 148.76 698.384 152.28C701.797 155.693 706.01 157.4 711.024 157.4C716.677 157.4 722.01 154.573 727.024 148.92V87.8H741.424V163H733.424L727.824 156.6H727.024C724.784 158.84 721.85 160.76 718.224 162.36C714.704 163.853 710.704 164.6 706.224 164.6ZM766.889 107C766.889 101.56 766.142 97.56 764.649 95C763.155 92.3333 760.169 91 755.689 91H752.489V87.8H766.889C770.835 87.8 773.822 88.3333 775.849 89.4C777.982 90.4667 779.529 92.0667 780.489 94.2H781.289C783.529 91.96 786.409 90.0933 789.929 88.6C793.555 87 797.609 86.2 802.089 86.2C806.569 86.2 810.409 87.0533 813.609 88.76C816.809 90.36 819.369 93.24 821.289 97.4C824.062 93.88 827.582 91.16 831.849 89.24C836.222 87.2133 840.702 86.2 845.289 86.2C852.115 86.2 857.555 88.3333 861.609 92.6C865.662 96.8667 867.689 104.333 867.689 115V163H853.289V115C853.289 107.32 852.222 101.827 850.089 98.52C847.955 95.1067 844.755 93.4 840.489 93.4C837.502 93.4 834.355 94.52 831.049 96.76C827.742 98.8933 825.289 101.24 823.689 103.8C824.222 105.4 824.489 109.133 824.489 115V163H810.089V115C810.089 107.32 809.022 101.827 806.889 98.52C804.755 95.1067 801.555 93.4 797.289 93.4C791.635 93.4 786.302 96.2267 781.289 101.88V163H766.889V107Z" fill="#FFFFFF"/>
<path d="M264.452 206.32C264.452 204.892 264.256 203.842 263.864 203.17C263.472 202.47 262.688 202.12 261.512 202.12H260.672V201.28H278.564C280.944 201.28 282.134 202.4 282.134 204.64V207.79H281.294C281.294 204.57 279.544 202.96 276.044 202.96H268.232V213.88H279.572V215.56H268.232V227.32H275.582C277.514 227.32 279.026 226.97 280.118 226.27C281.21 225.57 282.078 224.38 282.722 222.7L283.562 222.91L282.092 226.9C281.588 228.3 280.538 229 278.942 229H264.452V206.32ZM288.427 214.3C288.427 212.872 288.231 211.822 287.839 211.15C287.447 210.45 286.663 210.1 285.487 210.1H284.647V209.26H288.427C289.463 209.26 290.247 209.4 290.779 209.68C291.339 209.96 291.745 210.38 291.997 210.94H292.207C292.795 210.352 293.551 209.862 294.475 209.47C295.427 209.05 296.491 208.84 297.667 208.84C299.767 208.84 301.475 209.4 302.791 210.52C304.135 211.64 304.807 213.6 304.807 216.4V229H301.027V216.4C301.027 214.44 300.579 213.012 299.683 212.116C298.815 211.192 297.723 210.73 296.407 210.73C294.923 210.73 293.523 211.472 292.207 212.956V229H288.427V214.3ZM317.951 237.4C315.123 237.4 312.869 236.882 311.189 235.846C309.537 234.81 308.711 233.158 308.711 230.89C308.711 229.602 309.145 228.482 310.013 227.53C310.881 226.578 311.987 225.878 313.331 225.43C312.211 224.814 311.651 223.974 311.651 222.91C311.651 222.35 311.777 221.916 312.029 221.608C312.281 221.3 312.645 220.964 313.121 220.6C312.225 220.152 311.469 219.452 310.853 218.5C310.265 217.548 309.971 216.428 309.971 215.14C309.971 210.94 312.631 208.84 317.951 208.84H325.721V209.89L322.991 210.31V210.52C323.859 210.968 324.559 211.598 325.091 212.41C325.651 213.194 325.931 214.104 325.931 215.14C325.931 219.34 323.271 221.44 317.951 221.44C315.011 221.44 313.541 221.93 313.541 222.91C313.541 223.89 315.011 224.38 317.951 224.38C320.667 224.38 322.879 224.926 324.587 226.018C326.323 227.082 327.191 228.706 327.191 230.89C327.191 233.158 326.351 234.81 324.671 235.846C323.019 236.882 320.779 237.4 317.951 237.4ZM317.951 219.97C319.211 219.97 320.219 219.592 320.975 218.836C321.759 218.052 322.151 216.82 322.151 215.14C322.151 213.544 321.759 212.34 320.975 211.528C320.219 210.716 319.211 210.31 317.951 210.31C316.691 210.31 315.669 210.702 314.885 211.486C314.129 212.242 313.751 213.46 313.751 215.14C313.751 216.82 314.129 218.052 314.885 218.836C315.669 219.592 316.691 219.97 317.951 219.97ZM317.951 235.72C319.631 235.72 320.961 235.314 321.941 234.502C322.921 233.718 323.411 232.514 323.411 230.89C323.411 228.09 321.731 226.48 318.371 226.06L316.061 225.85C314.913 226.298 314.031 226.928 313.415 227.74C312.799 228.552 312.491 229.602 312.491 230.89C312.491 232.514 312.981 233.718 313.961 234.502C314.941 235.314 316.271 235.72 317.951 235.72ZM339.001 229.42C337.097 229.42 335.487 228.972 334.171 228.076C332.855 227.152 331.861 225.92 331.189 224.38C330.517 222.812 330.181 221.062 330.181 219.13C330.181 217.226 330.517 215.49 331.189 213.922C331.861 212.354 332.827 211.122 334.087 210.226C335.375 209.302 336.873 208.84 338.581 208.84C341.409 208.84 343.509 209.638 344.881 211.234C346.281 212.802 346.981 215.084 346.981 218.08L346.897 219.76H334.171C334.171 222.112 334.675 224.03 335.683 225.514C336.691 226.998 338.077 227.74 339.841 227.74C341.157 227.74 342.263 227.46 343.159 226.9C344.083 226.34 344.937 225.5 345.721 224.38L346.561 225.01C345.637 226.55 344.559 227.67 343.327 228.37C342.095 229.07 340.653 229.42 339.001 229.42ZM342.991 218.08C342.991 215.616 342.627 213.74 341.899 212.452C341.171 211.164 340.065 210.52 338.581 210.52C337.741 210.52 336.985 210.856 336.313 211.528C335.641 212.172 335.109 213.068 334.717 214.216C334.353 215.364 334.171 216.652 334.171 218.08H342.991ZM352.453 214.3C352.453 212.872 352.257 211.822 351.865 211.15C351.473 210.45 350.689 210.1 349.513 210.1H348.673V209.26H352.453C353.489 209.26 354.273 209.4 354.805 209.68C355.365 209.96 355.771 210.38 356.023 210.94H356.233C356.821 210.352 357.577 209.862 358.501 209.47C359.453 209.05 360.517 208.84 361.693 208.84C363.793 208.84 365.501 209.4 366.817 210.52C368.161 211.64 368.833 213.6 368.833 216.4V229H365.053V216.4C365.053 214.44 364.605 213.012 363.709 212.116C362.841 211.192 361.749 210.73 360.433 210.73C358.949 210.73 357.549 211.472 356.233 212.956V229H352.453V214.3ZM374.669 206.32C374.669 204.892 374.473 203.842 374.081 203.17C373.689 202.47 372.905 202.12 371.729 202.12H370.889V201.28H374.669C375.705 201.28 376.475 201.42 376.979 201.7C377.511 201.952 377.889 202.428 378.113 203.128C378.337 203.828 378.449 204.892 378.449 206.32V210.94C379.037 210.352 379.793 209.862 380.717 209.47C381.669 209.05 382.733 208.84 383.909 208.84C386.009 208.84 387.717 209.4 389.033 210.52C390.377 211.64 391.049 213.6 391.049 216.4V229H387.269V216.4C387.269 214.44 386.821 213.012 385.925 212.116C385.057 211.192 383.965 210.73 382.649 210.73C381.165 210.73 379.765 211.472 378.449 212.956V229H374.669V206.32ZM401.603 229.42C400.707 229.42 399.797 229.238 398.873 228.874C397.949 228.482 397.151 227.852 396.479 226.984C395.835 226.116 395.513 224.968 395.513 223.54C395.513 221.412 396.493 219.9 398.453 219.004C400.441 218.108 403.031 217.66 406.223 217.66H407.483C407.483 214.916 407.105 213.04 406.349 212.032C405.593 211.024 404.501 210.52 403.073 210.52C401.813 210.52 400.805 210.786 400.049 211.318C399.293 211.85 398.761 212.774 398.453 214.09H396.563C396.563 213.138 396.619 212.396 396.731 211.864C396.843 211.304 397.137 210.786 397.613 210.31C398.117 209.806 398.943 209.442 400.091 209.218C401.267 208.966 402.541 208.84 403.913 208.84C406.181 208.84 407.973 209.456 409.289 210.688C410.605 211.892 411.263 214.216 411.263 217.66V229H409.163L407.693 227.11H407.483C406.979 227.754 406.237 228.3 405.257 228.748C404.277 229.196 403.059 229.42 401.603 229.42ZM403.493 227.53C404.417 227.53 405.187 227.306 405.803 226.858C406.419 226.41 406.979 225.794 407.483 225.01V219.34H406.223C404.151 219.34 402.513 219.732 401.309 220.516C400.105 221.272 399.503 222.28 399.503 223.54C399.503 224.828 399.881 225.822 400.637 226.522C401.421 227.194 402.373 227.53 403.493 227.53ZM417.456 214.3C417.456 212.872 417.26 211.822 416.868 211.15C416.476 210.45 415.692 210.1 414.516 210.1H414.096V209.26H417.456C418.52 209.26 419.318 209.414 419.85 209.722C420.41 210.002 420.802 210.478 421.026 211.15H421.236C421.74 210.506 422.412 209.96 423.252 209.512C424.12 209.064 425.128 208.84 426.276 208.84C427.396 208.84 428.236 209.05 428.796 209.47C429.272 209.834 429.762 210.464 430.266 211.36L428.586 212.62C428.278 212.2 427.83 211.892 427.242 211.696C426.654 211.472 425.982 211.36 425.226 211.36C424.386 211.36 423.616 211.556 422.916 211.948C422.216 212.312 421.656 212.816 421.236 213.46V229H417.456V214.3ZM436.039 206.74C435.395 206.74 434.835 206.474 434.359 205.942C433.911 205.41 433.687 204.78 433.687 204.052C433.687 203.464 433.855 203.002 434.191 202.666C434.555 202.33 435.031 202.162 435.619 202.162C436.263 202.162 436.809 202.428 437.257 202.96C437.733 203.492 437.971 204.122 437.971 204.85C437.971 205.438 437.789 205.9 437.425 206.236C437.089 206.572 436.627 206.74 436.039 206.74ZM434.443 214.3C434.443 212.872 434.247 211.822 433.855 211.15C433.463 210.45 432.679 210.1 431.503 210.1H430.663V209.26H434.443C435.479 209.26 436.249 209.4 436.753 209.68C437.285 209.932 437.663 210.408 437.887 211.108C438.111 211.808 438.223 212.872 438.223 214.3V229H434.443V214.3ZM448.853 229.42C447.957 229.42 447.047 229.238 446.123 228.874C445.199 228.482 444.401 227.852 443.729 226.984C443.085 226.116 442.763 224.968 442.763 223.54C442.763 221.412 443.743 219.9 445.703 219.004C447.691 218.108 450.281 217.66 453.473 217.66H454.733C454.733 214.916 454.355 213.04 453.599 212.032C452.843 211.024 451.751 210.52 450.323 210.52C449.063 210.52 448.055 210.786 447.299 211.318C446.543 211.85 446.011 212.774 445.703 214.09H443.813C443.813 213.138 443.869 212.396 443.981 211.864C444.093 211.304 444.387 210.786 444.863 210.31C445.367 209.806 446.193 209.442 447.341 209.218C448.517 208.966 449.791 208.84 451.163 208.84C453.431 208.84 455.223 209.456 456.539 210.688C457.855 211.892 458.513 214.216 458.513 217.66V229H456.413L454.943 227.11H454.733C454.229 227.754 453.487 228.3 452.507 228.748C451.527 229.196 450.309 229.42 448.853 229.42ZM450.743 227.53C451.667 227.53 452.437 227.306 453.053 226.858C453.669 226.41 454.229 225.794 454.733 225.01V219.34H453.473C451.401 219.34 449.763 219.732 448.559 220.516C447.355 221.272 446.753 222.28 446.753 223.54C446.753 224.828 447.131 225.822 447.887 226.522C448.671 227.194 449.623 227.53 450.743 227.53ZM482.556 229.42C480.652 229.42 479.042 228.972 477.726 228.076C476.41 227.152 475.416 225.92 474.744 224.38C474.072 222.812 473.736 221.062 473.736 219.13C473.736 217.226 474.072 215.49 474.744 213.922C475.416 212.354 476.382 211.122 477.642 210.226C478.93 209.302 480.428 208.84 482.136 208.84C484.964 208.84 487.064 209.638 488.436 211.234C489.836 212.802 490.536 215.084 490.536 218.08L490.452 219.76H477.726C477.726 222.112 478.23 224.03 479.238 225.514C480.246 226.998 481.632 227.74 483.396 227.74C484.712 227.74 485.818 227.46 486.714 226.9C487.638 226.34 488.492 225.5 489.276 224.38L490.116 225.01C489.192 226.55 488.114 227.67 486.882 228.37C485.65 229.07 484.208 229.42 482.556 229.42ZM486.546 218.08C486.546 215.616 486.182 213.74 485.454 212.452C484.726 211.164 483.62 210.52 482.136 210.52C481.296 210.52 480.54 210.856 479.868 211.528C479.196 212.172 478.664 213.068 478.272 214.216C477.908 215.364 477.726 216.652 477.726 218.08H486.546ZM513.984 229.42C511.968 229.42 510.26 228.972 508.86 228.076C507.488 227.152 506.452 225.92 505.752 224.38C505.08 222.812 504.744 221.062 504.744 219.13C504.744 217.198 505.08 215.462 505.752 213.922C506.452 212.354 507.488 211.122 508.86 210.226C510.26 209.302 511.968 208.84 513.984 208.84C517.064 208.84 519.094 209.33 520.074 210.31C520.55 210.786 520.844 211.374 520.956 212.074C521.068 212.746 521.124 213.978 521.124 215.77H520.284C520.172 214.034 519.626 212.732 518.646 211.864C517.666 210.968 516.392 210.52 514.824 210.52C512.808 210.52 511.282 211.318 510.246 212.914C509.238 214.51 508.734 216.582 508.734 219.13C508.734 221.678 509.238 223.75 510.246 225.346C511.282 226.942 512.808 227.74 514.824 227.74C516.252 227.74 517.428 227.474 518.352 226.942C519.276 226.382 520.13 225.528 520.914 224.38L521.754 225.01C520.83 226.578 519.738 227.712 518.478 228.412C517.218 229.084 515.72 229.42 513.984 229.42ZM534.286 229.42C532.382 229.42 530.73 228.972 529.33 228.076C527.93 227.152 526.866 225.906 526.138 224.338C525.41 222.77 525.046 221.034 525.046 219.13C525.046 217.226 525.41 215.49 526.138 213.922C526.866 212.354 527.93 211.122 529.33 210.226C530.73 209.302 532.382 208.84 534.286 208.84C536.19 208.84 537.842 209.302 539.242 210.226C540.642 211.122 541.706 212.354 542.434 213.922C543.162 215.49 543.526 217.226 543.526 219.13C543.526 221.034 543.162 222.77 542.434 224.338C541.706 225.906 540.642 227.152 539.242 228.076C537.842 228.972 536.19 229.42 534.286 229.42ZM534.286 227.74C535.322 227.74 536.232 227.362 537.016 226.606C537.828 225.85 538.444 224.814 538.864 223.498C539.312 222.182 539.536 220.726 539.536 219.13C539.536 217.534 539.312 216.078 538.864 214.762C538.444 213.446 537.828 212.41 537.016 211.654C536.232 210.898 535.322 210.52 534.286 210.52C533.25 210.52 532.326 210.898 531.514 211.654C530.73 212.41 530.114 213.446 529.666 214.762C529.246 216.078 529.036 217.534 529.036 219.13C529.036 220.726 529.246 222.182 529.666 223.498C530.114 224.814 530.73 225.85 531.514 226.606C532.326 227.362 533.25 227.74 534.286 227.74ZM549.082 214.3C549.082 212.872 548.886 211.822 548.494 211.15C548.102 210.45 547.318 210.1 546.142 210.1H545.302V209.26H549.082C550.118 209.26 550.902 209.4 551.434 209.68C551.994 209.96 552.4 210.38 552.652 210.94H552.862C553.45 210.352 554.206 209.862 555.13 209.47C556.082 209.05 557.146 208.84 558.322 208.84C560.422 208.84 562.13 209.4 563.446 210.52C564.79 211.64 565.462 213.6 565.462 216.4V229H561.682V216.4C561.682 214.44 561.234 213.012 560.338 212.116C559.47 211.192 558.378 210.73 557.062 210.73C555.578 210.73 554.178 211.472 552.862 212.956V229H549.082V214.3ZM571.297 206.32C571.297 204.892 571.101 203.842 570.709 203.17C570.317 202.47 569.533 202.12 568.357 202.12H567.517V201.28H571.297C572.333 201.28 573.103 201.42 573.607 201.7C574.139 201.952 574.517 202.428 574.741 203.128C574.965 203.828 575.077 204.892 575.077 206.32V210.94C575.665 210.352 576.421 209.862 577.345 209.47C578.297 209.05 579.361 208.84 580.537 208.84C582.637 208.84 584.345 209.4 585.661 210.52C587.005 211.64 587.677 213.6 587.677 216.4V229H583.897V216.4C583.897 214.44 583.449 213.012 582.553 212.116C581.685 211.192 580.593 210.73 579.277 210.73C577.793 210.73 576.393 211.472 575.077 212.956V229H571.297V206.32ZM601.214 229.42C599.31 229.42 597.7 228.972 596.384 228.076C595.068 227.152 594.074 225.92 593.402 224.38C592.73 222.812 592.394 221.062 592.394 219.13C592.394 217.226 592.73 215.49 593.402 213.922C594.074 212.354 595.04 211.122 596.3 210.226C597.588 209.302 599.086 208.84 600.794 208.84C603.622 208.84 605.722 209.638 607.094 211.234C608.494 212.802 609.194 215.084 609.194 218.08L609.11 219.76H596.384C596.384 222.112 596.888 224.03 597.896 225.514C598.904 226.998 600.29 227.74 602.054 227.74C603.37 227.74 604.476 227.46 605.372 226.9C606.296 226.34 607.15 225.5 607.934 224.38L608.774 225.01C607.85 226.55 606.772 227.67 605.54 228.37C604.308 229.07 602.866 229.42 601.214 229.42ZM605.204 218.08C605.204 215.616 604.84 213.74 604.112 212.452C603.384 211.164 602.278 210.52 600.794 210.52C599.954 210.52 599.198 210.856 598.526 211.528C597.854 212.172 597.322 213.068 596.93 214.216C596.566 215.364 596.384 216.652 596.384 218.08H605.204ZM622.142 229.42C620.126 229.42 618.418 228.972 617.018 228.076C615.646 227.152 614.61 225.92 613.91 224.38C613.238 222.812 612.902 221.062 612.902 219.13C612.902 217.198 613.238 215.462 613.91 213.922C614.61 212.354 615.646 211.122 617.018 210.226C618.418 209.302 620.126 208.84 622.142 208.84C625.222 208.84 627.252 209.33 628.232 210.31C628.708 210.786 629.002 211.374 629.114 212.074C629.226 212.746 629.282 213.978 629.282 215.77H628.442C628.33 214.034 627.784 212.732 626.804 211.864C625.824 210.968 624.55 210.52 622.982 210.52C620.966 210.52 619.44 211.318 618.404 212.914C617.396 214.51 616.892 216.582 616.892 219.13C616.892 221.678 617.396 223.75 618.404 225.346C619.44 226.942 620.966 227.74 622.982 227.74C624.41 227.74 625.586 227.474 626.51 226.942C627.434 226.382 628.288 225.528 629.072 224.38L629.912 225.01C628.988 226.578 627.896 227.712 626.636 228.412C625.376 229.084 623.878 229.42 622.142 229.42ZM636.564 206.74C635.92 206.74 635.36 206.474 634.884 205.942C634.436 205.41 634.212 204.78 634.212 204.052C634.212 203.464 634.38 203.002 634.716 202.666C635.08 202.33 635.556 202.162 636.144 202.162C636.788 202.162 637.334 202.428 637.782 202.96C638.258 203.492 638.496 204.122 638.496 204.85C638.496 205.438 638.314 205.9 637.95 206.236C637.614 206.572 637.152 206.74 636.564 206.74ZM634.968 214.3C634.968 212.872 634.772 211.822 634.38 211.15C633.988 210.45 633.204 210.1 632.028 210.1H631.188V209.26H634.968C636.004 209.26 636.774 209.4 637.278 209.68C637.81 209.932 638.188 210.408 638.412 211.108C638.636 211.808 638.748 212.872 638.748 214.3V229H634.968V214.3ZM645.304 214.3C645.304 212.872 645.108 211.822 644.716 211.15C644.324 210.45 643.54 210.1 642.364 210.1H641.524V209.26H645.304C646.34 209.26 647.124 209.4 647.656 209.68C648.216 209.96 648.622 210.38 648.874 210.94H649.084C649.672 210.352 650.428 209.862 651.352 209.47C652.304 209.05 653.368 208.84 654.544 208.84C655.72 208.84 656.728 209.064 657.568 209.512C658.408 209.932 659.08 210.688 659.584 211.78C660.312 210.856 661.236 210.142 662.356 209.638C663.504 209.106 664.68 208.84 665.884 208.84C667.676 208.84 669.104 209.4 670.168 210.52C671.232 211.64 671.764 213.6 671.764 216.4V229H667.984V216.4C667.984 214.384 667.704 212.942 667.144 212.074C666.584 211.178 665.744 210.73 664.624 210.73C663.84 210.73 663.014 211.024 662.146 211.612C661.278 212.172 660.634 212.788 660.214 213.46C660.354 213.88 660.424 214.86 660.424 216.4V229H656.644V216.4C656.644 214.384 656.364 212.942 655.804 212.074C655.244 211.178 654.404 210.73 653.284 210.73C651.8 210.73 650.4 211.472 649.084 212.956V229H645.304V214.3ZM685.337 229.42C683.433 229.42 681.823 228.972 680.507 228.076C679.191 227.152 678.197 225.92 677.525 224.38C676.853 222.812 676.517 221.062 676.517 219.13C676.517 217.226 676.853 215.49 677.525 213.922C678.197 212.354 679.163 211.122 680.423 210.226C681.711 209.302 683.209 208.84 684.917 208.84C687.745 208.84 689.845 209.638 691.217 211.234C692.617 212.802 693.317 215.084 693.317 218.08L693.233 219.76H680.507C680.507 222.112 681.011 224.03 682.019 225.514C683.027 226.998 684.413 227.74 686.177 227.74C687.493 227.74 688.599 227.46 689.495 226.9C690.419 226.34 691.273 225.5 692.057 224.38L692.897 225.01C691.973 226.55 690.895 227.67 689.663 228.37C688.431 229.07 686.989 229.42 685.337 229.42ZM689.327 218.08C689.327 215.616 688.963 213.74 688.235 212.452C687.507 211.164 686.401 210.52 684.917 210.52C684.077 210.52 683.321 210.856 682.649 211.528C681.977 212.172 681.445 213.068 681.053 214.216C680.689 215.364 680.507 216.652 680.507 218.08H689.327ZM698.789 214.3C698.789 212.872 698.593 211.822 698.201 211.15C697.809 210.45 697.025 210.1 695.849 210.1H695.009V209.26H698.789C699.825 209.26 700.609 209.4 701.141 209.68C701.701 209.96 702.107 210.38 702.359 210.94H702.569C703.157 210.352 703.913 209.862 704.837 209.47C705.789 209.05 706.853 208.84 708.029 208.84C710.129 208.84 711.837 209.4 713.153 210.52C714.497 211.64 715.169 213.6 715.169 216.4V229H711.389V216.4C711.389 214.44 710.941 213.012 710.045 212.116C709.177 211.192 708.085 210.73 706.769 210.73C705.285 210.73 703.885 211.472 702.569 212.956V229H698.789V214.3ZM726.842 229.42C725.274 229.42 724.042 228.972 723.146 228.076C722.25 227.18 721.802 225.808 721.802 223.96V210.94H718.862V209.26H721.802V205.48L723.902 202.96H725.582V209.26H730.622V210.94H725.582V223.96C725.582 226.48 726.562 227.74 728.522 227.74C729.194 227.74 729.754 227.67 730.202 227.53C730.678 227.39 731.168 227.18 731.672 226.9L732.092 227.74C731.448 228.216 730.734 228.622 729.95 228.958C729.166 229.266 728.13 229.42 726.842 229.42ZM743.302 229.42C741.398 229.42 739.746 228.972 738.346 228.076C736.946 227.152 735.882 225.906 735.154 224.338C734.426 222.77 734.062 221.034 734.062 219.13C734.062 217.226 734.426 215.49 735.154 213.922C735.882 212.354 736.946 211.122 738.346 210.226C739.746 209.302 741.398 208.84 743.302 208.84C745.206 208.84 746.858 209.302 748.258 210.226C749.658 211.122 750.722 212.354 751.45 213.922C752.178 215.49 752.542 217.226 752.542 219.13C752.542 221.034 752.178 222.77 751.45 224.338C750.722 225.906 749.658 227.152 748.258 228.076C746.858 228.972 745.206 229.42 743.302 229.42ZM743.302 227.74C744.338 227.74 745.248 227.362 746.032 226.606C746.844 225.85 747.46 224.814 747.88 223.498C748.328 222.182 748.552 220.726 748.552 219.13C748.552 217.534 748.328 216.078 747.88 214.762C747.46 213.446 746.844 212.41 746.032 211.654C745.248 210.898 744.338 210.52 743.302 210.52C742.266 210.52 741.342 210.898 740.53 211.654C739.746 212.41 739.13 213.446 738.682 214.762C738.262 216.078 738.052 217.534 738.052 219.13C738.052 220.726 738.262 222.182 738.682 223.498C739.13 224.814 739.746 225.85 740.53 226.606C741.342 227.362 742.266 227.74 743.302 227.74Z" fill="#FFFFFF"/>
<path d="M115.636 90.3394L109.927 87.9241C117.173 81.5565 129.561 79.857 143.961 83.3131C160.429 87.2654 174.262 106.588 166.577 126.569C160.99 141.095 162.771 156.65 163.064 162.798C158.673 161.042 158.233 159.066 157.355 158.407C156.477 157.748 156.696 150.722 157.355 147.648C157.882 145.189 155.964 140.036 154.94 137.767C179.312 90.9981 128.152 80.8978 115.636 90.3394Z" fill="#FFFFFF"/>
<path d="M157.575 127.667C165.699 92.7547 132.543 85.0697 117.832 91.8764C115.197 93.0955 114.924 98.1911 118.71 97.5853C168.114 89.6807 154.899 139.164 157.575 127.667Z" fill="#FFFFFF"/>
<path d="M109.488 98.4636C109.342 99.9274 109.664 103.075 112.123 103.953C115.197 105.051 125.517 105.709 138.033 127.886C138.652 128.984 141.277 127.447 140.887 126.349C137.74 117.493 127.054 99.5175 109.488 98.4636Z" fill="#FFFFFF"/>
<path d="M146.157 131.839C146.157 133.536 144.781 134.913 143.083 134.913C141.385 134.913 140.009 133.536 140.009 131.839C140.009 130.141 141.385 128.765 143.083 128.765C144.781 128.765 146.157 130.141 146.157 131.839Z" fill="#FFFFFF"/>
<path d="M152.761 112.184C145.465 95.5555 127.327 97.5247 117.612 100.369L139.636 127.062C140.007 126.771 141.282 126.231 143.418 126.406C145.554 126.581 146.384 128.813 146.532 129.907L143.418 142.378C144.308 141.722 161.882 132.97 152.761 112.184Z" fill="#FFFFFF"/>
<path d="M118.93 167.19C119.223 166.458 119.281 162.623 117.173 153.137C118.227 153.137 126.249 148.892 130.128 146.77C129.908 148.892 129.601 154.235 130.128 158.627C130.787 164.116 134.739 157.968 132.763 168.507C130.787 179.047 109.049 182.56 110.806 175.973C112.211 170.703 116.807 167.922 118.93 167.19Z" fill="#FFFFFF"/>
<path fill-rule="evenodd" clip-rule="evenodd" d="M110.806 112.955C109.854 112.223 107.907 113.702 107.732 125.471C106.634 127.008 104.306 130.214 103.779 130.741C103.252 131.268 104.731 132.717 105.536 133.376C105.808 134.192 105.999 134.968 106.173 135.674C106.7 137.814 107.067 139.304 109.049 139.304C111.607 139.304 108.756 140.622 107.073 140.841C106.634 143.476 106.414 148.965 109.049 149.844C112.343 150.941 120.467 153.137 129.469 144.135C129.689 143.769 130.128 142.29 130.128 139.304L131.226 134.254C123.729 128.438 123.917 126.121 124.086 124.035C124.204 122.577 124.313 121.232 121.784 118.884C116.866 114.317 112.416 113.029 110.806 112.955ZM111.904 126.788L116.734 125.471C116.661 124.593 116.207 122.661 114.978 121.958C113.748 121.255 111.684 121.665 110.806 121.958C110.732 123.129 110.85 125.735 111.904 126.788Z" fill="#FFFFFF"/>
<path d="M104.438 182.34C103.34 178.608 105.755 175.314 109.269 173.557C105.975 178.608 108.365 180.465 110.806 181.023C118.491 182.78 127.932 178.827 135.837 172.02C128.811 183.877 117.606 186.366 115.856 186.512C113.221 186.732 105.907 187.334 104.438 182.34Z" fill="#FFFFFF"/>
<path fill-rule="evenodd" clip-rule="evenodd" d="M115.417 107.011C114.465 105.986 112.167 104.244 110.586 105.474C109.005 106.703 108.317 109.06 108.171 110.085C108.61 111.256 109.708 113.247 110.586 111.841C111.464 110.436 113.001 110.085 113.66 110.085C113.367 110.597 113.309 111.973 115.417 113.378C117.525 114.784 118.344 113.964 118.491 113.378C119.223 113.012 120.862 112.807 121.565 114.915C121.746 115.459 121.834 115.9 121.913 116.298C122.217 117.828 122.395 118.722 127.274 122.381C126.908 122.527 126.395 123.479 127.274 126.114C128.371 129.407 129.25 131.383 131.226 132.701L132.543 131.164C133.422 132.481 135.134 135.599 134.959 137.531C134.783 139.464 133.275 140.971 132.543 141.484C132.104 145.143 131.489 152.989 132.543 155.097C133.597 157.205 133.861 159.066 133.422 159.724C133.451 159.82 133.482 159.924 133.515 160.036C133.813 161.046 134.291 162.667 135.398 163.457C136.058 163.929 135.786 164.398 135.383 165.092C134.848 166.014 134.082 167.335 134.959 169.589C136.188 172.751 140.448 175.298 142.424 176.176C142.863 176.981 143.171 179.118 140.887 181.226C138.604 183.334 138.765 185.471 139.131 186.276C141.107 182.105 146.596 177.713 147.913 180.128C148.967 182.061 147.474 185.325 146.596 186.716C147.108 186.862 148.792 186.672 151.427 184.739C153.315 183.355 153.471 177.857 153.55 175.071C153.609 172.998 153.625 172.428 154.281 176.176C155.511 183.202 159.331 185.398 161.088 185.618C161.6 185.545 162.317 185.135 161.088 184.081C159.551 182.763 156.257 173.322 156.477 169.589C156.696 165.856 156.257 161.684 152.744 155.097C150.389 150.682 148.824 150.213 147.188 149.722C146.383 149.481 145.561 149.234 144.62 148.51C141.765 146.314 140.228 138.849 140.009 137.092C139.833 135.687 139.204 132.554 138.911 131.164C138.399 131.676 137.11 132.218 136.057 130.285C135.526 129.313 135.565 129.159 135.629 128.907C135.724 128.533 135.874 127.941 134.3 124.137C132.192 119.043 129.323 116.891 128.152 116.452C125.693 111.71 123.029 110.231 122.004 110.085C122.443 110.817 122.882 111.666 121.126 109.206C119.369 106.747 116.588 106.718 115.417 107.011ZM143.961 150.706C144.029 150.751 144.098 150.799 144.168 150.848C144.098 150.795 144.028 150.748 143.961 150.706ZM144.168 150.848C147.061 153.014 152.894 164.184 153.183 167.613C153.355 159.363 147.374 153.102 144.168 150.848ZM137.374 166.515C136.715 167.906 136.847 171.214 142.644 173.322L137.374 166.515Z" fill="#FFFFFF"/>
<path d="M94.9964 203.639V190.465H171.188V203.639L157.575 207.591H108.39L94.9964 203.639Z" fill="#FFFFFF"/>
<path d="M115.417 212.641C115.417 214.339 114.04 215.715 112.343 215.715C110.645 215.715 109.269 214.339 109.269 212.641C109.269 210.944 110.645 209.567 112.343 209.567C114.04 209.567 115.417 210.944 115.417 212.641Z" fill="#FFFFFF"/>
<path d="M123.76 212.641C123.76 214.339 122.384 215.715 120.686 215.715C118.989 215.715 117.612 214.339 117.612 212.641C117.612 210.944 118.989 209.567 120.686 209.567C122.384 209.567 123.76 210.944 123.76 212.641Z" fill="#FFFFFF"/>
<path d="M132.104 212.641C132.104 214.339 130.728 215.715 129.03 215.715C127.332 215.715 125.956 214.339 125.956 212.641C125.956 210.944 127.332 209.567 129.03 209.567C130.728 209.567 132.104 210.944 132.104 212.641Z" fill="#FFFFFF"/>
<path d="M140.448 212.641C140.448 214.339 139.072 215.715 137.374 215.715C135.676 215.715 134.3 214.339 134.3 212.641C134.3 210.944 135.676 209.567 137.374 209.567C139.072 209.567 140.448 210.944 140.448 212.641Z" fill="#FFFFFF"/>
<path d="M148.792 212.641C148.792 214.339 147.415 215.715 145.718 215.715C144.02 215.715 142.644 214.339 142.644 212.641C142.644 210.944 144.02 209.567 145.718 209.567C147.415 209.567 148.792 210.944 148.792 212.641Z" fill="#FFFFFF"/>
<path d="M157.135 212.641C157.135 214.339 155.759 215.715 154.061 215.715C152.364 215.715 150.987 214.339 150.987 212.641C150.987 210.944 152.364 209.567 154.061 209.567C155.759 209.567 157.135 210.944 157.135 212.641Z" fill="#FFFFFF"/>
<path d="M115.417 227.152C113.337 226.718 111.287 226.206 109.269 225.619V217.033H115.417V227.152Z" fill="#FFFFFF"/>
<path d="M123.76 228.45C121.687 228.236 119.637 227.945 117.612 227.579V217.033H123.76V228.45Z" fill="#FFFFFF"/>
<path d="M132.104 228.89C130.036 228.884 127.986 228.803 125.956 228.647V217.033H132.104V228.89Z" fill="#FFFFFF"/>
<path d="M140.448 228.494C138.419 228.693 136.369 228.818 134.3 228.867V217.033H140.448V228.494Z" fill="#FFFFFF"/>
<path d="M148.792 227.243C146.768 227.653 144.718 227.99 142.644 228.249V217.033H148.792V227.243Z" fill="#FFFFFF"/>
<path d="M157.135 225.086C155.119 225.722 153.068 226.283 150.987 226.766V217.033H157.135V225.086Z" fill="#FFFFFF"/>
<path fill-rule="evenodd" clip-rule="evenodd" d="M132.324 239.429C183.62 239.429 225.203 197.846 225.203 146.55C225.203 95.2542 183.62 53.6707 132.324 53.6707C81.0279 53.6707 39.4444 95.2542 39.4444 146.55C39.4444 197.846 81.0279 239.429 132.324 239.429ZM132.324 228.89C177.799 228.89 214.664 192.025 214.664 146.55C214.664 101.075 177.799 64.2102 132.324 64.2102C86.8487 64.2102 49.9839 101.075 49.9839 146.55C49.9839 192.025 86.8487 228.89 132.324 228.89Z" fill="#FFFFFF"/>
<path d="M126.834 48.401C126.834 50.3771 127.193 54.3295 124.639 54.3295H140.228C137.593 54.3295 138.033 50.1576 138.033 48.401C138.033 46.6444 126.834 46.4248 126.834 48.401Z" fill="#FFFFFF"/>
<path d="M138.046 244.48C138.046 242.503 137.688 238.551 140.242 238.551H124.652C127.287 238.551 126.848 242.723 126.848 244.48C126.848 246.236 138.046 246.456 138.046 244.48Z" fill="#FFFFFF"/>
<path d="M230.48 140.834C228.503 140.834 224.551 141.193 224.551 138.639V154.228C224.551 151.593 228.723 152.033 230.48 152.033C232.236 152.033 232.456 140.834 230.48 140.834Z" fill="#FFFFFF"/>
<path d="M34.401 152.046C36.3771 152.046 40.3295 151.688 40.3295 154.242L40.3295 138.652C40.3295 141.287 36.1576 140.848 34.401 140.848C32.6444 140.848 32.4248 152.046 34.401 152.046Z" fill="#FFFFFF"/>
<path d="M197.801 73.1521C196.403 74.5494 193.862 77.5976 192.056 75.7915L203.079 86.8151C201.216 84.952 204.477 82.3125 205.719 81.0704C206.961 79.8283 199.198 71.7547 197.801 73.1521Z" fill="#FFFFFF"/>
<path d="M67.0799 219.728C68.4773 218.331 71.0185 215.283 72.8246 217.089L61.8011 206.065C63.6642 207.929 60.4037 210.568 59.1616 211.81C57.9195 213.052 65.6826 221.126 67.0799 219.728Z" fill="#FFFFFF"/>
<path d="M205.728 211.801C204.331 210.403 201.283 207.862 203.089 206.056L192.065 217.079C193.929 215.216 196.568 218.477 197.81 219.719C199.052 220.961 207.126 213.198 205.728 211.801Z" fill="#FFFFFF"/>
<path d="M59.1521 81.0799C60.5495 82.4773 63.5977 85.0185 61.7916 86.8246L72.8151 75.801C70.952 77.6642 68.3126 74.4037 67.0705 73.1616C65.8284 71.9195 57.7548 79.6826 59.1521 81.0799Z" fill="#FFFFFF"/>
<path d="M152.4 50.2907C151.888 52.1995 151.212 56.11 148.745 55.4489L163.803 59.4838C161.258 58.8018 162.762 54.8858 163.217 53.189C163.671 51.4923 152.911 48.3819 152.4 50.2907Z" fill="#FFFFFF"/>
<path d="M112.481 242.59C112.992 240.681 113.669 236.771 116.136 237.432L101.077 233.397C103.623 234.079 102.119 237.995 101.664 239.691C101.209 241.388 111.969 244.499 112.481 242.59Z" fill="#FFFFFF"/>
<path d="M228.59 166.4C226.681 165.888 222.771 165.212 223.432 162.745L219.397 177.803C220.079 175.258 223.995 176.762 225.691 177.217C227.388 177.671 230.499 166.911 228.59 166.4Z" fill="#FFFFFF"/>
<path d="M36.2907 126.481C38.1996 126.992 42.11 127.669 41.4489 130.136L45.4838 115.077C44.8019 117.623 40.8858 116.119 39.1891 115.664C37.4923 115.209 34.3819 125.969 36.2907 126.481Z" fill="#FFFFFF"/>
<path d="M214.542 92.5658C212.83 93.5539 209.587 95.8405 208.31 93.6285L216.105 107.13C214.787 104.848 218.62 103.142 220.141 102.264C221.662 101.385 216.253 91.5777 214.542 92.5658Z" fill="#FFFFFF"/>
<path d="M50.3386 200.315C52.05 199.327 55.2936 197.04 56.5707 199.252L48.7759 185.751C50.0933 188.033 46.2608 189.738 44.7395 190.617C43.2183 191.495 48.6272 201.303 50.3386 200.315Z" fill="#FFFFFF"/>
<path d="M186.315 228.542C185.327 226.83 183.04 223.587 185.252 222.31L171.751 230.105C174.033 228.787 175.738 232.62 176.617 234.141C177.495 235.662 187.303 230.253 186.315 228.542Z" fill="#FFFFFF"/>
<path d="M78.5658 64.3386C79.5539 66.05 81.8405 69.2936 79.6285 70.5707L93.1296 62.7759C90.8477 64.0933 89.1421 60.2608 88.2638 58.7395C87.3855 57.2183 77.5778 62.6272 78.5658 64.3386Z" fill="#FFFFFF"/>
<path d="M176.605 58.7328C175.617 60.4443 173.951 64.0463 171.739 62.7692L185.24 70.564C182.958 69.2466 185.425 65.8532 186.303 64.332C187.181 62.8107 177.593 57.0214 176.605 58.7328Z" fill="#FFFFFF"/>
<path d="M88.2754 234.148C89.2635 232.436 90.9292 228.834 93.1412 230.111L79.6402 222.316C81.922 223.634 79.4558 227.027 78.5775 228.549C77.6992 230.07 87.2873 235.859 88.2754 234.148Z" fill="#FFFFFF"/>
<path d="M220.148 190.605C218.436 189.617 214.834 187.951 216.111 185.739L208.316 199.24C209.634 196.958 213.027 199.425 214.549 200.303C216.07 201.181 221.859 191.593 220.148 190.605Z" fill="#FFFFFF"/>
<path d="M44.7328 102.275C46.4442 103.263 50.0463 104.929 48.7692 107.141L56.564 93.6401C55.2466 95.922 51.8532 93.4558 50.3319 92.5775C48.8107 91.6992 43.0214 101.287 44.7328 102.275Z" fill="#FFFFFF"/>
<path d="M225.688 115.651C223.779 116.162 220.054 117.532 219.393 115.064L223.428 130.123C222.746 127.578 226.89 126.922 228.586 126.468C230.283 126.013 227.597 115.14 225.688 115.651Z" fill="#FFFFFF"/>
<path d="M39.1925 177.229C41.1013 176.718 44.8262 175.349 45.4872 177.816L41.4523 162.758C42.1343 165.303 37.9909 165.958 36.2942 166.413C34.5974 166.867 37.2837 177.741 39.1925 177.229Z" fill="#FFFFFF"/>
<path d="M163.229 239.688C162.718 237.779 161.349 234.054 163.816 233.393L148.758 237.428C151.303 236.746 151.958 240.89 152.413 242.586C152.867 244.283 163.741 241.597 163.229 239.688Z" fill="#FFFFFF"/>
<path d="M101.651 53.1925C102.163 55.1013 103.532 58.8262 101.065 59.4872L116.123 55.4523C113.578 56.1343 112.922 51.9909 112.468 50.2942C112.013 48.5974 101.14 51.2837 101.651 53.1925Z" fill="#FFFFFF"/>
</svg>
