<svg width="377" height="318" viewBox="0 0 377 318" fill="none" xmlns="http://www.w3.org/2000/svg">
<path d="M17.5278 270C15.1598 270 13.3678 269.712 12.1518 269.136C10.9998 268.496 10.1678 267.376 9.65575 265.776C9.14375 264.176 8.88775 261.744 8.88775 258.48V206.64H17.5278V258.48C17.5278 261.744 17.9758 264.176 18.8718 265.776C19.7678 267.312 21.5598 268.08 24.2478 268.08H26.1678V270H17.5278ZM36.0708 236.4C36.0708 233.136 35.6228 230.736 34.7268 229.2C33.8308 227.6 32.0388 226.8 29.3508 226.8H27.4307V224.88H36.0708C38.4388 224.88 40.2308 225.2 41.4468 225.84C42.7268 226.48 43.6548 227.44 44.2308 228.72H44.7108C46.0548 227.376 47.7828 226.256 49.8948 225.36C52.0708 224.4 54.5028 223.92 57.1908 223.92C61.9908 223.92 65.8948 225.2 68.9028 227.76C71.9748 230.32 73.5108 234.8 73.5108 241.2V270H64.8708V241.2C64.8708 236.72 63.8468 233.456 61.7988 231.408C59.8148 229.296 57.3188 228.24 54.3108 228.24C50.9188 228.24 47.7188 229.936 44.7108 233.328V270H36.0708V236.4ZM103.554 289.2C97.0895 289.2 91.9375 288.016 88.0975 285.648C84.3215 283.28 82.4335 279.504 82.4335 274.32C82.4335 271.376 83.4255 268.816 85.4095 266.64C87.3935 264.464 89.9215 262.864 92.9935 261.84C90.4335 260.432 89.1535 258.512 89.1535 256.08C89.1535 254.8 89.4415 253.808 90.0175 253.104C90.5935 252.4 91.4255 251.632 92.5135 250.8C90.4655 249.776 88.7375 248.176 87.3295 246C85.9855 243.824 85.3135 241.264 85.3135 238.32C85.3135 228.72 91.3935 223.92 103.554 223.92H121.314V226.32L115.074 227.28V227.76C117.058 228.784 118.658 230.224 119.874 232.08C121.154 233.872 121.794 235.952 121.794 238.32C121.794 247.92 115.714 252.72 103.554 252.72C96.8335 252.72 93.4735 253.84 93.4735 256.08C93.4735 258.32 96.8335 259.44 103.554 259.44C109.762 259.44 114.818 260.688 118.722 263.184C122.69 265.616 124.674 269.328 124.674 274.32C124.674 279.504 122.754 283.28 118.914 285.648C115.138 288.016 110.018 289.2 103.554 289.2ZM103.554 249.36C106.434 249.36 108.738 248.496 110.466 246.768C112.258 244.976 113.154 242.16 113.154 238.32C113.154 234.672 112.258 231.92 110.466 230.064C108.738 228.208 106.434 227.28 103.554 227.28C100.674 227.28 98.3375 228.176 96.5455 229.968C94.8175 231.696 93.9535 234.48 93.9535 238.32C93.9535 242.16 94.8175 244.976 96.5455 246.768C98.3375 248.496 100.674 249.36 103.554 249.36ZM103.554 285.36C107.394 285.36 110.434 284.432 112.674 282.576C114.914 280.784 116.034 278.032 116.034 274.32C116.034 267.92 112.194 264.24 104.514 263.28L99.2335 262.8C96.6095 263.824 94.5935 265.264 93.1855 267.12C91.7775 268.976 91.0735 271.376 91.0735 274.32C91.0735 278.032 92.1935 280.784 94.4335 282.576C96.6735 284.432 99.7135 285.36 103.554 285.36ZM151.668 270.96C147.316 270.96 143.636 269.936 140.628 267.888C137.62 265.776 135.348 262.96 133.812 259.44C132.276 255.856 131.508 251.856 131.508 247.44C131.508 243.088 132.276 239.12 133.812 235.536C135.348 231.952 137.556 229.136 140.436 227.088C143.38 224.976 146.804 223.92 150.708 223.92C157.172 223.92 161.972 225.744 165.108 229.392C168.308 232.976 169.908 238.192 169.908 245.04L169.716 248.88H140.628C140.628 254.256 141.78 258.64 144.084 262.032C146.388 265.424 149.556 267.12 153.588 267.12C156.596 267.12 159.124 266.48 161.172 265.2C163.284 263.92 165.236 262 167.028 259.44L168.948 260.88C166.836 264.4 164.372 266.96 161.556 268.56C158.74 270.16 155.444 270.96 151.668 270.96ZM160.788 245.04C160.788 239.408 159.956 235.12 158.292 232.176C156.628 229.232 154.1 227.76 150.708 227.76C148.788 227.76 147.06 228.528 145.524 230.064C143.988 231.536 142.772 233.584 141.876 236.208C141.044 238.832 140.628 241.776 140.628 245.04H160.788ZM182.415 236.4C182.415 233.136 181.967 230.736 181.071 229.2C180.175 227.6 178.383 226.8 175.695 226.8H173.774V224.88H182.415C184.783 224.88 186.575 225.2 187.791 225.84C189.071 226.48 189.999 227.44 190.575 228.72H191.055C192.399 227.376 194.127 226.256 196.239 225.36C198.415 224.4 200.847 223.92 203.535 223.92C208.335 223.92 212.239 225.2 215.247 227.76C218.319 230.32 219.855 234.8 219.855 241.2V270H211.215V241.2C211.215 236.72 210.191 233.456 208.143 231.408C206.159 229.296 203.663 228.24 200.655 228.24C197.263 228.24 194.063 229.936 191.055 233.328V270H182.415V236.4ZM238.281 219.12C236.809 219.12 235.529 218.512 234.441 217.296C233.417 216.08 232.905 214.64 232.905 212.976C232.905 211.632 233.289 210.576 234.057 209.808C234.889 209.04 235.977 208.656 237.321 208.656C238.793 208.656 240.041 209.264 241.065 210.48C242.153 211.696 242.697 213.136 242.697 214.8C242.697 216.144 242.281 217.2 241.449 217.968C240.681 218.736 239.625 219.12 238.281 219.12ZM234.633 236.4C234.633 233.136 234.185 230.736 233.289 229.2C232.393 227.6 230.601 226.8 227.913 226.8H225.993V224.88H234.633C237.001 224.88 238.761 225.2 239.913 225.84C241.129 226.416 241.993 227.504 242.505 229.104C243.017 230.704 243.273 233.136 243.273 236.4V270H234.633V236.4ZM273.234 270.96C268.434 270.96 264.498 269.68 261.426 267.12C258.418 264.56 256.914 260.08 256.914 253.68V236.4C256.914 233.136 256.466 230.736 255.57 229.2C254.674 227.6 252.882 226.8 250.194 226.8H249.234V224.88H256.914C259.282 224.88 261.042 225.2 262.194 225.84C263.41 226.416 264.274 227.504 264.786 229.104C265.298 230.704 265.554 233.136 265.554 236.4V253.68C265.554 258.16 266.546 261.456 268.53 263.568C270.578 265.616 273.106 266.64 276.114 266.64C279.506 266.64 282.706 264.944 285.714 261.552V224.88H294.354V270H289.554L286.194 266.16H285.714C284.37 267.504 282.61 268.656 280.434 269.616C278.322 270.512 275.922 270.96 273.234 270.96ZM309.633 236.4C309.633 233.136 309.185 230.736 308.289 229.2C307.393 227.6 305.601 226.8 302.913 226.8H300.993V224.88H309.633C312.001 224.88 313.793 225.2 315.009 225.84C316.289 226.48 317.217 227.44 317.793 228.72H318.273C319.617 227.376 321.345 226.256 323.457 225.36C325.633 224.4 328.065 223.92 330.753 223.92C333.441 223.92 335.745 224.432 337.665 225.456C339.585 226.416 341.121 228.144 342.273 230.64C343.937 228.528 346.049 226.896 348.609 225.744C351.233 224.528 353.921 223.92 356.673 223.92C360.769 223.92 364.033 225.2 366.465 227.76C368.897 230.32 370.113 234.8 370.113 241.2V270H361.473V241.2C361.473 236.592 360.833 233.296 359.553 231.312C358.273 229.264 356.353 228.24 353.793 228.24C352.001 228.24 350.113 228.912 348.129 230.256C346.145 231.536 344.673 232.944 343.713 234.48C344.033 235.44 344.193 237.68 344.193 241.2V270H335.553V241.2C335.553 236.592 334.913 233.296 333.633 231.312C332.353 229.264 330.433 228.24 327.873 228.24C324.481 228.24 321.281 229.936 318.273 233.328V270H309.633V236.4Z" fill="white"/>
<path d="M49.7745 300.04C49.7745 299.224 49.6625 298.624 49.4385 298.24C49.2145 297.84 48.7665 297.64 48.0945 297.64H47.6145V297.16H57.8385C59.1985 297.16 59.8785 297.8 59.8785 299.08V300.88H59.3985C59.3985 299.04 58.3985 298.12 56.3985 298.12H51.9345V304.36H58.4145V305.32H51.9345V312.04H56.1345C57.2385 312.04 58.1025 311.84 58.7265 311.44C59.3505 311.04 59.8465 310.36 60.2145 309.4L60.6945 309.52L59.8545 311.8C59.5665 312.6 58.9665 313 58.0545 313H49.7745V300.04ZM63.4747 304.6C63.4747 303.784 63.3627 303.184 63.1387 302.8C62.9147 302.4 62.4667 302.2 61.7947 302.2H61.3147V301.72H63.4747C64.0667 301.72 64.5147 301.8 64.8187 301.96C65.1387 302.12 65.3707 302.36 65.5147 302.68H65.6347C65.9707 302.344 66.4027 302.064 66.9307 301.84C67.4747 301.6 68.0827 301.48 68.7547 301.48C69.9547 301.48 70.9307 301.8 71.6827 302.44C72.4507 303.08 72.8347 304.2 72.8347 305.8V313H70.6747V305.8C70.6747 304.68 70.4187 303.864 69.9067 303.352C69.4107 302.824 68.7867 302.56 68.0347 302.56C67.1867 302.56 66.3867 302.984 65.6347 303.832V313H63.4747V304.6ZM80.3454 317.8C78.7294 317.8 77.4414 317.504 76.4814 316.912C75.5374 316.32 75.0654 315.376 75.0654 314.08C75.0654 313.344 75.3134 312.704 75.8094 312.16C76.3054 311.616 76.9374 311.216 77.7054 310.96C77.0654 310.608 76.7454 310.128 76.7454 309.52C76.7454 309.2 76.8174 308.952 76.9614 308.776C77.1054 308.6 77.3134 308.408 77.5854 308.2C77.0734 307.944 76.6414 307.544 76.2894 307C75.9534 306.456 75.7854 305.816 75.7854 305.08C75.7854 302.68 77.3054 301.48 80.3454 301.48H84.7854V302.08L83.2254 302.32V302.44C83.7214 302.696 84.1214 303.056 84.4254 303.52C84.7454 303.968 84.9054 304.488 84.9054 305.08C84.9054 307.48 83.3854 308.68 80.3454 308.68C78.6654 308.68 77.8254 308.96 77.8254 309.52C77.8254 310.08 78.6654 310.36 80.3454 310.36C81.8974 310.36 83.1614 310.672 84.1374 311.296C85.1294 311.904 85.6254 312.832 85.6254 314.08C85.6254 315.376 85.1454 316.32 84.1854 316.912C83.2414 317.504 81.9614 317.8 80.3454 317.8ZM80.3454 307.84C81.0654 307.84 81.6414 307.624 82.0734 307.192C82.5214 306.744 82.7454 306.04 82.7454 305.08C82.7454 304.168 82.5214 303.48 82.0734 303.016C81.6414 302.552 81.0654 302.32 80.3454 302.32C79.6254 302.32 79.0414 302.544 78.5934 302.992C78.1614 303.424 77.9454 304.12 77.9454 305.08C77.9454 306.04 78.1614 306.744 78.5934 307.192C79.0414 307.624 79.6254 307.84 80.3454 307.84ZM80.3454 316.84C81.3054 316.84 82.0654 316.608 82.6254 316.144C83.1854 315.696 83.4654 315.008 83.4654 314.08C83.4654 312.48 82.5054 311.56 80.5854 311.32L79.2654 311.2C78.6094 311.456 78.1054 311.816 77.7534 312.28C77.4014 312.744 77.2254 313.344 77.2254 314.08C77.2254 315.008 77.5054 315.696 78.0654 316.144C78.6254 316.608 79.3854 316.84 80.3454 316.84ZM92.3739 313.24C91.2859 313.24 90.3659 312.984 89.6139 312.472C88.8619 311.944 88.2939 311.24 87.9099 310.36C87.5259 309.464 87.3339 308.464 87.3339 307.36C87.3339 306.272 87.5259 305.28 87.9099 304.384C88.2939 303.488 88.8459 302.784 89.5659 302.272C90.3019 301.744 91.1579 301.48 92.1339 301.48C93.7499 301.48 94.9499 301.936 95.7339 302.848C96.5339 303.744 96.9339 305.048 96.9339 306.76L96.8859 307.72H89.6139C89.6139 309.064 89.9019 310.16 90.4779 311.008C91.0539 311.856 91.8459 312.28 92.8539 312.28C93.6059 312.28 94.2379 312.12 94.7499 311.8C95.2779 311.48 95.7659 311 96.2139 310.36L96.6939 310.72C96.1659 311.6 95.5499 312.24 94.8459 312.64C94.1419 313.04 93.3179 313.24 92.3739 313.24ZM94.6539 306.76C94.6539 305.352 94.4459 304.28 94.0299 303.544C93.6139 302.808 92.9819 302.44 92.1339 302.44C91.6539 302.44 91.2219 302.632 90.8379 303.016C90.4539 303.384 90.1499 303.896 89.9259 304.552C89.7179 305.208 89.6139 305.944 89.6139 306.76H94.6539ZM100.061 304.6C100.061 303.784 99.9487 303.184 99.7247 302.8C99.5007 302.4 99.0527 302.2 98.3807 302.2H97.9007V301.72H100.061C100.653 301.72 101.101 301.8 101.405 301.96C101.725 302.12 101.957 302.36 102.101 302.68H102.221C102.557 302.344 102.989 302.064 103.517 301.84C104.061 301.6 104.669 301.48 105.341 301.48C106.541 301.48 107.517 301.8 108.269 302.44C109.037 303.08 109.421 304.2 109.421 305.8V313H107.261V305.8C107.261 304.68 107.005 303.864 106.493 303.352C105.997 302.824 105.373 302.56 104.621 302.56C103.773 302.56 102.973 302.984 102.221 303.832V313H100.061V304.6ZM112.755 300.04C112.755 299.224 112.643 298.624 112.419 298.24C112.195 297.84 111.747 297.64 111.075 297.64H110.595V297.16H112.755C113.347 297.16 113.787 297.24 114.075 297.4C114.379 297.544 114.595 297.816 114.723 298.216C114.851 298.616 114.915 299.224 114.915 300.04V302.68C115.251 302.344 115.683 302.064 116.211 301.84C116.755 301.6 117.363 301.48 118.035 301.48C119.235 301.48 120.211 301.8 120.963 302.44C121.731 303.08 122.115 304.2 122.115 305.8V313H119.955V305.8C119.955 304.68 119.699 303.864 119.187 303.352C118.691 302.824 118.067 302.56 117.315 302.56C116.467 302.56 115.667 302.984 114.915 303.832V313H112.755V300.04ZM128.146 313.24C127.634 313.24 127.114 313.136 126.586 312.928C126.058 312.704 125.602 312.344 125.218 311.848C124.85 311.352 124.666 310.696 124.666 309.88C124.666 308.664 125.226 307.8 126.346 307.288C127.482 306.776 128.962 306.52 130.786 306.52H131.506C131.506 304.952 131.29 303.88 130.858 303.304C130.426 302.728 129.802 302.44 128.986 302.44C128.266 302.44 127.69 302.592 127.258 302.896C126.826 303.2 126.522 303.728 126.346 304.48H125.266C125.266 303.936 125.298 303.512 125.362 303.208C125.426 302.888 125.594 302.592 125.866 302.32C126.154 302.032 126.626 301.824 127.282 301.696C127.954 301.552 128.682 301.48 129.466 301.48C130.762 301.48 131.786 301.832 132.538 302.536C133.29 303.224 133.666 304.552 133.666 306.52V313H132.466L131.626 311.92H131.506C131.218 312.288 130.794 312.6 130.234 312.856C129.674 313.112 128.978 313.24 128.146 313.24ZM129.226 312.16C129.754 312.16 130.194 312.032 130.546 311.776C130.898 311.52 131.218 311.168 131.506 310.72V307.48H130.786C129.602 307.48 128.666 307.704 127.978 308.152C127.29 308.584 126.946 309.16 126.946 309.88C126.946 310.616 127.162 311.184 127.594 311.584C128.042 311.968 128.586 312.16 129.226 312.16ZM137.205 304.6C137.205 303.784 137.093 303.184 136.869 302.8C136.645 302.4 136.197 302.2 135.525 302.2H135.285V301.72H137.205C137.813 301.72 138.269 301.808 138.573 301.984C138.893 302.144 139.117 302.416 139.245 302.8H139.365C139.653 302.432 140.037 302.12 140.517 301.864C141.013 301.608 141.589 301.48 142.245 301.48C142.885 301.48 143.365 301.6 143.685 301.84C143.957 302.048 144.237 302.408 144.525 302.92L143.565 303.64C143.389 303.4 143.133 303.224 142.797 303.112C142.461 302.984 142.077 302.92 141.645 302.92C141.165 302.92 140.725 303.032 140.325 303.256C139.925 303.464 139.605 303.752 139.365 304.12V313H137.205V304.6ZM147.824 300.28C147.456 300.28 147.136 300.128 146.864 299.824C146.608 299.52 146.48 299.16 146.48 298.744C146.48 298.408 146.576 298.144 146.768 297.952C146.976 297.76 147.248 297.664 147.584 297.664C147.952 297.664 148.264 297.816 148.52 298.12C148.792 298.424 148.928 298.784 148.928 299.2C148.928 299.536 148.824 299.8 148.616 299.992C148.424 300.184 148.16 300.28 147.824 300.28ZM146.912 304.6C146.912 303.784 146.8 303.184 146.576 302.8C146.352 302.4 145.904 302.2 145.232 302.2H144.752V301.72H146.912C147.504 301.72 147.944 301.8 148.232 301.96C148.536 302.104 148.752 302.376 148.88 302.776C149.008 303.176 149.072 303.784 149.072 304.6V313H146.912V304.6ZM155.146 313.24C154.634 313.24 154.114 313.136 153.586 312.928C153.058 312.704 152.602 312.344 152.218 311.848C151.85 311.352 151.666 310.696 151.666 309.88C151.666 308.664 152.226 307.8 153.346 307.288C154.482 306.776 155.962 306.52 157.786 306.52H158.506C158.506 304.952 158.29 303.88 157.858 303.304C157.426 302.728 156.802 302.44 155.986 302.44C155.266 302.44 154.69 302.592 154.258 302.896C153.826 303.2 153.522 303.728 153.346 304.48H152.266C152.266 303.936 152.298 303.512 152.362 303.208C152.426 302.888 152.594 302.592 152.866 302.32C153.154 302.032 153.626 301.824 154.282 301.696C154.954 301.552 155.682 301.48 156.466 301.48C157.762 301.48 158.786 301.832 159.538 302.536C160.29 303.224 160.666 304.552 160.666 306.52V313H159.466L158.626 311.92H158.506C158.218 312.288 157.794 312.6 157.234 312.856C156.674 313.112 155.978 313.24 155.146 313.24ZM156.226 312.16C156.754 312.16 157.194 312.032 157.546 311.776C157.898 311.52 158.218 311.168 158.506 310.72V307.48H157.786C156.602 307.48 155.666 307.704 154.978 308.152C154.29 308.584 153.946 309.16 153.946 309.88C153.946 310.616 154.162 311.184 154.594 311.584C155.042 311.968 155.586 312.16 156.226 312.16ZM174.405 313.24C173.317 313.24 172.397 312.984 171.645 312.472C170.893 311.944 170.325 311.24 169.941 310.36C169.557 309.464 169.365 308.464 169.365 307.36C169.365 306.272 169.557 305.28 169.941 304.384C170.325 303.488 170.877 302.784 171.597 302.272C172.333 301.744 173.189 301.48 174.165 301.48C175.781 301.48 176.981 301.936 177.765 302.848C178.565 303.744 178.965 305.048 178.965 306.76L178.917 307.72H171.645C171.645 309.064 171.933 310.16 172.509 311.008C173.085 311.856 173.877 312.28 174.885 312.28C175.637 312.28 176.269 312.12 176.781 311.8C177.309 311.48 177.797 311 178.245 310.36L178.725 310.72C178.197 311.6 177.581 312.24 176.877 312.64C176.173 313.04 175.349 313.24 174.405 313.24ZM176.685 306.76C176.685 305.352 176.477 304.28 176.061 303.544C175.645 302.808 175.013 302.44 174.165 302.44C173.685 302.44 173.253 302.632 172.869 303.016C172.485 303.384 172.181 303.896 171.957 304.552C171.749 305.208 171.645 305.944 171.645 306.76H176.685ZM192.364 313.24C191.212 313.24 190.236 312.984 189.436 312.472C188.652 311.944 188.06 311.24 187.66 310.36C187.276 309.464 187.084 308.464 187.084 307.36C187.084 306.256 187.276 305.264 187.66 304.384C188.06 303.488 188.652 302.784 189.436 302.272C190.236 301.744 191.212 301.48 192.364 301.48C194.124 301.48 195.284 301.76 195.844 302.32C196.116 302.592 196.284 302.928 196.348 303.328C196.412 303.712 196.444 304.416 196.444 305.44H195.964C195.9 304.448 195.588 303.704 195.028 303.208C194.468 302.696 193.74 302.44 192.844 302.44C191.692 302.44 190.82 302.896 190.228 303.808C189.652 304.72 189.364 305.904 189.364 307.36C189.364 308.816 189.652 310 190.228 310.912C190.82 311.824 191.692 312.28 192.844 312.28C193.66 312.28 194.332 312.128 194.86 311.824C195.388 311.504 195.876 311.016 196.324 310.36L196.804 310.72C196.276 311.616 195.652 312.264 194.932 312.664C194.212 313.048 193.356 313.24 192.364 313.24ZM203.965 313.24C202.877 313.24 201.933 312.984 201.133 312.472C200.333 311.944 199.725 311.232 199.309 310.336C198.893 309.44 198.685 308.448 198.685 307.36C198.685 306.272 198.893 305.28 199.309 304.384C199.725 303.488 200.333 302.784 201.133 302.272C201.933 301.744 202.877 301.48 203.965 301.48C205.053 301.48 205.997 301.744 206.797 302.272C207.597 302.784 208.205 303.488 208.621 304.384C209.037 305.28 209.245 306.272 209.245 307.36C209.245 308.448 209.037 309.44 208.621 310.336C208.205 311.232 207.597 311.944 206.797 312.472C205.997 312.984 205.053 313.24 203.965 313.24ZM203.965 312.28C204.557 312.28 205.077 312.064 205.525 311.632C205.989 311.2 206.341 310.608 206.581 309.856C206.837 309.104 206.965 308.272 206.965 307.36C206.965 306.448 206.837 305.616 206.581 304.864C206.341 304.112 205.989 303.52 205.525 303.088C205.077 302.656 204.557 302.44 203.965 302.44C203.373 302.44 202.845 302.656 202.381 303.088C201.933 303.52 201.581 304.112 201.325 304.864C201.085 305.616 200.965 306.448 200.965 307.36C200.965 308.272 201.085 309.104 201.325 309.856C201.581 310.608 201.933 311.2 202.381 311.632C202.845 312.064 203.373 312.28 203.965 312.28ZM212.42 304.6C212.42 303.784 212.308 303.184 212.084 302.8C211.86 302.4 211.412 302.2 210.74 302.2H210.26V301.72H212.42C213.012 301.72 213.46 301.8 213.764 301.96C214.084 302.12 214.316 302.36 214.46 302.68H214.58C214.916 302.344 215.348 302.064 215.876 301.84C216.42 301.6 217.028 301.48 217.7 301.48C218.9 301.48 219.876 301.8 220.628 302.44C221.396 303.08 221.78 304.2 221.78 305.8V313H219.62V305.8C219.62 304.68 219.364 303.864 218.852 303.352C218.356 302.824 217.732 302.56 216.98 302.56C216.132 302.56 215.332 302.984 214.58 303.832V313H212.42V304.6ZM225.115 300.04C225.115 299.224 225.003 298.624 224.779 298.24C224.555 297.84 224.107 297.64 223.435 297.64H222.955V297.16H225.115C225.707 297.16 226.147 297.24 226.435 297.4C226.739 297.544 226.955 297.816 227.083 298.216C227.211 298.616 227.275 299.224 227.275 300.04V302.68C227.611 302.344 228.043 302.064 228.571 301.84C229.115 301.6 229.723 301.48 230.395 301.48C231.595 301.48 232.571 301.8 233.323 302.44C234.091 303.08 234.475 304.2 234.475 305.8V313H232.315V305.8C232.315 304.68 232.059 303.864 231.547 303.352C231.051 302.824 230.427 302.56 229.675 302.56C228.827 302.56 228.027 302.984 227.275 303.832V313H225.115V300.04ZM242.21 313.24C241.122 313.24 240.202 312.984 239.45 312.472C238.698 311.944 238.13 311.24 237.746 310.36C237.362 309.464 237.17 308.464 237.17 307.36C237.17 306.272 237.362 305.28 237.746 304.384C238.13 303.488 238.682 302.784 239.402 302.272C240.138 301.744 240.994 301.48 241.97 301.48C243.586 301.48 244.786 301.936 245.57 302.848C246.37 303.744 246.77 305.048 246.77 306.76L246.722 307.72H239.45C239.45 309.064 239.738 310.16 240.314 311.008C240.89 311.856 241.682 312.28 242.69 312.28C243.442 312.28 244.074 312.12 244.586 311.8C245.114 311.48 245.602 311 246.05 310.36L246.53 310.72C246.002 311.6 245.386 312.24 244.682 312.64C243.978 313.04 243.154 313.24 242.21 313.24ZM244.49 306.76C244.49 305.352 244.282 304.28 243.866 303.544C243.45 302.808 242.818 302.44 241.97 302.44C241.49 302.44 241.058 302.632 240.674 303.016C240.29 303.384 239.986 303.896 239.762 304.552C239.554 305.208 239.45 305.944 239.45 306.76H244.49ZM254.169 313.24C253.017 313.24 252.041 312.984 251.241 312.472C250.457 311.944 249.865 311.24 249.465 310.36C249.081 309.464 248.889 308.464 248.889 307.36C248.889 306.256 249.081 305.264 249.465 304.384C249.865 303.488 250.457 302.784 251.241 302.272C252.041 301.744 253.017 301.48 254.169 301.48C255.929 301.48 257.089 301.76 257.649 302.32C257.921 302.592 258.089 302.928 258.153 303.328C258.217 303.712 258.249 304.416 258.249 305.44H257.769C257.705 304.448 257.393 303.704 256.833 303.208C256.273 302.696 255.545 302.44 254.649 302.44C253.497 302.44 252.625 302.896 252.033 303.808C251.457 304.72 251.169 305.904 251.169 307.36C251.169 308.816 251.457 310 252.033 310.912C252.625 311.824 253.497 312.28 254.649 312.28C255.465 312.28 256.137 312.128 256.665 311.824C257.193 311.504 257.681 311.016 258.129 310.36L258.609 310.72C258.081 311.616 257.457 312.264 256.737 312.664C256.017 313.048 255.161 313.24 254.169 313.24ZM262.41 300.28C262.042 300.28 261.722 300.128 261.45 299.824C261.194 299.52 261.066 299.16 261.066 298.744C261.066 298.408 261.162 298.144 261.354 297.952C261.562 297.76 261.834 297.664 262.17 297.664C262.538 297.664 262.85 297.816 263.106 298.12C263.378 298.424 263.514 298.784 263.514 299.2C263.514 299.536 263.41 299.8 263.202 299.992C263.01 300.184 262.746 300.28 262.41 300.28ZM261.498 304.6C261.498 303.784 261.386 303.184 261.162 302.8C260.938 302.4 260.49 302.2 259.818 302.2H259.338V301.72H261.498C262.09 301.72 262.53 301.8 262.818 301.96C263.122 302.104 263.338 302.376 263.466 302.776C263.594 303.176 263.658 303.784 263.658 304.6V313H261.498V304.6ZM267.404 304.6C267.404 303.784 267.292 303.184 267.068 302.8C266.844 302.4 266.396 302.2 265.724 302.2H265.244V301.72H267.404C267.996 301.72 268.444 301.8 268.748 301.96C269.068 302.12 269.3 302.36 269.444 302.68H269.564C269.9 302.344 270.332 302.064 270.86 301.84C271.404 301.6 272.012 301.48 272.684 301.48C273.356 301.48 273.932 301.608 274.412 301.864C274.892 302.104 275.276 302.536 275.564 303.16C275.98 302.632 276.508 302.224 277.148 301.936C277.804 301.632 278.476 301.48 279.164 301.48C280.188 301.48 281.004 301.8 281.612 302.44C282.22 303.08 282.524 304.2 282.524 305.8V313H280.364V305.8C280.364 304.648 280.204 303.824 279.884 303.328C279.564 302.816 279.084 302.56 278.444 302.56C277.996 302.56 277.524 302.728 277.028 303.064C276.532 303.384 276.164 303.736 275.924 304.12C276.004 304.36 276.044 304.92 276.044 305.8V313H273.884V305.8C273.884 304.648 273.724 303.824 273.404 303.328C273.084 302.816 272.604 302.56 271.964 302.56C271.116 302.56 270.316 302.984 269.564 303.832V313H267.404V304.6ZM290.28 313.24C289.192 313.24 288.272 312.984 287.52 312.472C286.768 311.944 286.2 311.24 285.816 310.36C285.432 309.464 285.24 308.464 285.24 307.36C285.24 306.272 285.432 305.28 285.816 304.384C286.2 303.488 286.752 302.784 287.472 302.272C288.208 301.744 289.064 301.48 290.04 301.48C291.656 301.48 292.856 301.936 293.64 302.848C294.44 303.744 294.84 305.048 294.84 306.76L294.792 307.72H287.52C287.52 309.064 287.808 310.16 288.384 311.008C288.96 311.856 289.752 312.28 290.76 312.28C291.512 312.28 292.144 312.12 292.656 311.8C293.184 311.48 293.672 311 294.12 310.36L294.6 310.72C294.072 311.6 293.456 312.24 292.752 312.64C292.048 313.04 291.224 313.24 290.28 313.24ZM292.56 306.76C292.56 305.352 292.352 304.28 291.936 303.544C291.52 302.808 290.888 302.44 290.04 302.44C289.56 302.44 289.128 302.632 288.744 303.016C288.36 303.384 288.056 303.896 287.832 304.552C287.624 305.208 287.52 305.944 287.52 306.76H292.56ZM297.967 304.6C297.967 303.784 297.855 303.184 297.631 302.8C297.407 302.4 296.959 302.2 296.287 302.2H295.807V301.72H297.967C298.559 301.72 299.007 301.8 299.311 301.96C299.631 302.12 299.863 302.36 300.007 302.68H300.127C300.463 302.344 300.895 302.064 301.423 301.84C301.967 301.6 302.575 301.48 303.247 301.48C304.447 301.48 305.423 301.8 306.175 302.44C306.943 303.08 307.327 304.2 307.327 305.8V313H305.167V305.8C305.167 304.68 304.911 303.864 304.399 303.352C303.903 302.824 303.279 302.56 302.527 302.56C301.679 302.56 300.879 302.984 300.127 303.832V313H297.967V304.6ZM313.998 313.24C313.102 313.24 312.398 312.984 311.886 312.472C311.374 311.96 311.118 311.176 311.118 310.12V302.68H309.438V301.72H311.118V299.56L312.318 298.12H313.278V301.72H316.158V302.68H313.278V310.12C313.278 311.56 313.838 312.28 314.958 312.28C315.342 312.28 315.662 312.24 315.918 312.16C316.19 312.08 316.47 311.96 316.758 311.8L316.998 312.28C316.63 312.552 316.222 312.784 315.774 312.976C315.326 313.152 314.734 313.24 313.998 313.24ZM323.403 313.24C322.315 313.24 321.371 312.984 320.571 312.472C319.771 311.944 319.163 311.232 318.747 310.336C318.331 309.44 318.123 308.448 318.123 307.36C318.123 306.272 318.331 305.28 318.747 304.384C319.163 303.488 319.771 302.784 320.571 302.272C321.371 301.744 322.315 301.48 323.403 301.48C324.491 301.48 325.435 301.744 326.235 302.272C327.035 302.784 327.643 303.488 328.059 304.384C328.475 305.28 328.683 306.272 328.683 307.36C328.683 308.448 328.475 309.44 328.059 310.336C327.643 311.232 327.035 311.944 326.235 312.472C325.435 312.984 324.491 313.24 323.403 313.24ZM323.403 312.28C323.995 312.28 324.515 312.064 324.963 311.632C325.427 311.2 325.779 310.608 326.019 309.856C326.275 309.104 326.403 308.272 326.403 307.36C326.403 306.448 326.275 305.616 326.019 304.864C325.779 304.112 325.427 303.52 324.963 303.088C324.515 302.656 323.995 302.44 323.403 302.44C322.811 302.44 322.283 302.656 321.819 303.088C321.371 303.52 321.019 304.112 320.763 304.864C320.523 305.616 320.403 306.448 320.403 307.36C320.403 308.272 320.523 309.104 320.763 309.856C321.019 310.608 321.371 311.2 321.819 311.632C322.283 312.064 322.811 312.28 323.403 312.28Z" fill="white"/>
<path d="M171.636 43.3394L165.927 40.9241C173.173 34.5565 185.561 32.857 199.961 36.3131C216.429 40.2654 230.262 59.5878 222.577 79.5689C216.99 94.0949 218.771 109.65 219.064 115.798C214.673 114.042 214.233 112.066 213.355 111.407C212.477 110.748 212.696 103.722 213.355 100.648C213.882 98.1887 211.964 93.036 210.94 90.7671C235.312 43.9981 184.152 33.8978 171.636 43.3394Z" fill="white"/>
<path d="M213.575 80.6668C221.699 45.7547 188.543 38.0697 173.832 44.8764C171.197 46.0955 170.924 51.1911 174.71 50.5853C224.114 42.6807 210.899 92.1635 213.575 80.6668Z" fill="white"/>
<path d="M165.488 51.4636C165.342 52.9274 165.664 56.0746 168.123 56.9529C171.197 58.0508 181.517 58.7095 194.033 80.8863C194.652 81.9842 197.277 80.4472 196.887 79.3493C193.74 70.4932 183.054 52.5175 165.488 51.4636Z" fill="white"/>
<path d="M202.157 84.8387C202.157 86.5364 200.781 87.9127 199.083 87.9127C197.385 87.9127 196.009 86.5364 196.009 84.8387C196.009 83.1409 197.385 81.7646 199.083 81.7646C200.781 81.7646 202.157 83.1409 202.157 84.8387Z" fill="white"/>
<path d="M208.761 65.1841C201.465 48.5555 183.327 50.5247 173.612 53.3691L195.636 80.0623C196.007 79.7706 197.282 79.2309 199.418 79.4059C201.554 79.581 202.384 81.8127 202.532 82.9067L199.418 95.3781C200.308 94.7218 217.882 85.9699 208.761 65.1841Z" fill="white"/>
<path d="M174.93 120.19C175.223 119.458 175.281 115.623 173.173 106.137C174.227 106.137 182.249 101.892 186.128 99.7696C185.908 101.892 185.601 107.235 186.128 111.627C186.787 117.116 190.739 110.968 188.763 121.507C186.787 132.047 165.049 135.56 166.806 128.973C168.211 123.703 172.807 120.922 174.93 120.19Z" fill="white"/>
<path fill-rule="evenodd" clip-rule="evenodd" d="M166.806 65.9554C165.854 65.2235 163.907 66.7019 163.732 78.471C162.634 80.008 160.306 83.2138 159.779 83.7408C159.252 84.2678 160.731 85.7169 161.536 86.3757C161.808 87.1923 161.999 87.9685 162.173 88.674C162.7 90.8139 163.067 92.3041 165.049 92.3041C167.607 92.3041 164.756 93.6216 163.073 93.8411C162.634 96.476 162.414 101.965 165.049 102.844C168.343 103.941 176.467 106.137 185.469 97.1347C185.689 96.7688 186.128 95.2903 186.128 92.3041L187.226 87.2539C179.729 81.4378 179.917 79.1213 180.086 77.0353C180.204 75.5775 180.313 74.2323 177.784 71.8839C172.866 67.3167 168.416 66.0286 166.806 65.9554ZM167.904 79.7885L172.734 78.471C172.661 77.5928 172.207 75.6605 170.978 74.9579C169.748 74.2552 167.684 74.6651 166.806 74.9579C166.732 76.1289 166.85 78.7345 167.904 79.7885Z" fill="white"/>
<path d="M160.438 135.34C159.34 131.608 161.755 128.314 165.269 126.557C161.975 131.608 164.365 133.465 166.806 134.023C174.491 135.78 183.932 131.827 191.837 125.02C184.811 136.877 173.606 139.366 171.856 139.512C169.221 139.732 161.907 140.334 160.438 135.34Z" fill="white"/>
<path fill-rule="evenodd" clip-rule="evenodd" d="M171.417 60.0107C170.465 58.986 168.167 57.2441 166.586 58.4737C165.005 59.7033 164.317 62.06 164.171 63.0847C164.61 64.2558 165.708 66.2466 166.586 64.8413C167.464 63.436 169.001 63.0847 169.66 63.0847C169.367 63.597 169.309 64.973 171.417 66.3783C173.525 67.7836 174.344 66.9638 174.491 66.3783C175.223 66.0123 176.862 65.8074 177.565 67.9153C177.746 68.4594 177.834 68.9004 177.913 69.2985C178.217 70.8281 178.395 71.7218 183.274 75.3808C182.908 75.5272 182.395 76.4786 183.274 79.1135C184.371 82.4071 185.25 84.3833 187.226 85.7007L188.543 84.1637C189.422 85.4811 191.134 88.5991 190.959 90.5313C190.783 92.4635 189.275 93.9713 188.543 94.4836C188.104 98.1432 187.489 105.989 188.543 108.097C189.597 110.205 189.861 112.066 189.422 112.724C189.451 112.82 189.482 112.924 189.515 113.036C189.813 114.046 190.291 115.667 191.398 116.457C192.058 116.929 191.786 117.398 191.383 118.092C190.848 119.014 190.082 120.335 190.959 122.589C192.188 125.751 196.448 128.298 198.424 129.176C198.863 129.981 199.171 132.118 196.887 134.226C194.604 136.334 194.765 138.471 195.131 139.276C197.107 135.105 202.596 130.713 203.913 133.128C204.967 135.061 203.474 138.325 202.596 139.716C203.108 139.862 204.792 139.672 207.427 137.739C209.315 136.355 209.471 130.857 209.55 128.071C209.609 125.998 209.625 125.428 210.281 129.176C211.511 136.202 215.331 138.398 217.088 138.618C217.6 138.545 218.317 138.135 217.088 137.081C215.551 135.763 212.257 126.322 212.477 122.589C212.696 118.856 212.257 114.684 208.744 108.097C206.389 103.682 204.824 103.213 203.188 102.722C202.383 102.481 201.561 102.234 200.62 101.51C197.765 99.3142 196.228 91.8487 196.009 90.0922C195.833 88.6869 195.204 85.5543 194.911 84.1637C194.399 84.676 193.11 85.2176 192.057 83.2854C191.526 82.313 191.565 82.1592 191.629 81.9069C191.724 81.5325 191.874 80.9414 190.3 77.1374C188.192 72.0433 185.323 69.8915 184.152 69.4523C181.693 64.7095 179.029 63.2311 178.004 63.0847C178.443 63.8166 178.882 64.6656 177.126 62.2064C175.369 59.7472 172.588 59.7179 171.417 60.0107ZM199.961 103.706C200.029 103.751 200.098 103.799 200.168 103.848C200.098 103.795 200.028 103.748 199.961 103.706ZM200.168 103.848C203.061 106.014 208.894 117.184 209.183 120.613C209.355 112.363 203.374 106.102 200.168 103.848ZM193.374 119.515C192.715 120.906 192.847 124.214 198.644 126.322L193.374 119.515Z" fill="white"/>
<path d="M150.996 156.639V143.465H227.188V156.639L213.575 160.591H164.39L150.996 156.639Z" fill="white"/>
<path d="M171.417 165.641C171.417 167.339 170.04 168.715 168.343 168.715C166.645 168.715 165.269 167.339 165.269 165.641C165.269 163.944 166.645 162.567 168.343 162.567C170.04 162.567 171.417 163.944 171.417 165.641Z" fill="white"/>
<path d="M179.76 165.641C179.76 167.339 178.384 168.715 176.686 168.715C174.989 168.715 173.612 167.339 173.612 165.641C173.612 163.944 174.989 162.567 176.686 162.567C178.384 162.567 179.76 163.944 179.76 165.641Z" fill="white"/>
<path d="M188.104 165.641C188.104 167.339 186.728 168.715 185.03 168.715C183.332 168.715 181.956 167.339 181.956 165.641C181.956 163.944 183.332 162.567 185.03 162.567C186.728 162.567 188.104 163.944 188.104 165.641Z" fill="white"/>
<path d="M196.448 165.641C196.448 167.339 195.072 168.715 193.374 168.715C191.676 168.715 190.3 167.339 190.3 165.641C190.3 163.944 191.676 162.567 193.374 162.567C195.072 162.567 196.448 163.944 196.448 165.641Z" fill="white"/>
<path d="M204.792 165.641C204.792 167.339 203.415 168.715 201.718 168.715C200.02 168.715 198.644 167.339 198.644 165.641C198.644 163.944 200.02 162.567 201.718 162.567C203.415 162.567 204.792 163.944 204.792 165.641Z" fill="white"/>
<path d="M213.135 165.641C213.135 167.339 211.759 168.715 210.061 168.715C208.364 168.715 206.987 167.339 206.987 165.641C206.987 163.944 208.364 162.567 210.061 162.567C211.759 162.567 213.135 163.944 213.135 165.641Z" fill="white"/>
<path d="M171.417 180.152C169.337 179.718 167.287 179.206 165.269 178.619V170.033H171.417V180.152Z" fill="white"/>
<path d="M179.76 181.45C177.687 181.236 175.637 180.945 173.612 180.579V170.033H179.76V181.45Z" fill="white"/>
<path d="M188.104 181.89C186.036 181.884 183.986 181.803 181.956 181.647V170.033H188.104V181.89Z" fill="white"/>
<path d="M196.448 181.494C194.419 181.693 192.369 181.818 190.3 181.867V170.033H196.448V181.494Z" fill="white"/>
<path d="M204.792 180.243C202.768 180.653 200.718 180.99 198.644 181.249V170.033H204.792V180.243Z" fill="white"/>
<path d="M213.135 178.086C211.119 178.722 209.068 179.283 206.987 179.766V170.033H213.135V178.086Z" fill="white"/>
<path fill-rule="evenodd" clip-rule="evenodd" d="M188.324 192.429C239.62 192.429 281.203 150.846 281.203 99.55C281.203 48.2542 239.62 6.67073 188.324 6.67073C137.028 6.67073 95.4444 48.2542 95.4444 99.55C95.4444 150.846 137.028 192.429 188.324 192.429ZM188.324 181.89C233.799 181.89 270.664 145.025 270.664 99.55C270.664 54.075 233.799 17.2102 188.324 17.2102C142.849 17.2102 105.984 54.075 105.984 99.55C105.984 145.025 142.849 181.89 188.324 181.89Z" fill="white"/>
<path d="M182.834 1.40099C182.834 3.37715 183.193 7.32945 180.639 7.32945H196.228C193.593 7.32945 194.033 3.15757 194.033 1.40099C194.033 -0.355596 182.834 -0.575172 182.834 1.40099Z" fill="white"/>
<path d="M194.046 197.48C194.046 195.503 193.688 191.551 196.242 191.551H180.652C183.287 191.551 182.848 195.723 182.848 197.48C182.848 199.236 194.046 199.456 194.046 197.48Z" fill="white"/>
<path d="M286.48 93.8344C284.503 93.8344 280.551 94.1929 280.551 91.6387V107.228C280.551 104.593 284.723 105.033 286.48 105.033C288.236 105.033 288.456 93.8344 286.48 93.8344Z" fill="white"/>
<path d="M90.401 105.046C92.3771 105.046 96.3295 104.688 96.3295 107.242L96.3295 91.6521C96.3295 94.287 92.1576 93.8479 90.401 93.8479C88.6444 93.8479 88.4248 105.046 90.401 105.046Z" fill="white"/>
<path d="M253.801 26.1521C252.403 27.5494 249.862 30.5976 248.056 28.7915L259.079 39.8151C257.216 37.952 260.477 35.3125 261.719 34.0704C262.961 32.8283 255.198 24.7547 253.801 26.1521Z" fill="white"/>
<path d="M123.08 172.728C124.477 171.331 127.019 168.283 128.825 170.089L117.801 159.065C119.664 160.929 116.404 163.568 115.162 164.81C113.92 166.052 121.683 174.126 123.08 172.728Z" fill="white"/>
<path d="M261.728 164.801C260.331 163.403 257.283 160.862 259.089 159.056L248.065 170.079C249.929 168.216 252.568 171.477 253.81 172.719C255.052 173.961 263.126 166.198 261.728 164.801Z" fill="white"/>
<path d="M115.152 34.0799C116.549 35.4773 119.598 38.0185 117.792 39.8246L128.815 28.801C126.952 30.6642 124.313 27.4037 123.07 26.1616C121.828 24.9195 113.755 32.6826 115.152 34.0799Z" fill="white"/>
<path d="M208.4 3.29071C207.888 5.19953 207.212 9.10995 204.745 8.44887L219.803 12.4838C217.258 11.8018 218.762 7.88575 219.217 6.18902C219.671 4.49229 208.911 1.38188 208.4 3.29071Z" fill="white"/>
<path d="M168.481 195.59C168.992 193.681 169.669 189.771 172.136 190.432L157.077 186.397C159.623 187.079 158.119 190.995 157.664 192.691C157.209 194.388 167.969 197.499 168.481 195.59Z" fill="white"/>
<path d="M284.59 119.4C282.681 118.888 278.771 118.212 279.432 115.745L275.397 130.803C276.079 128.258 279.995 129.762 281.691 130.217C283.388 130.671 286.499 119.911 284.59 119.4Z" fill="white"/>
<path d="M92.2907 79.4806C94.1996 79.9921 98.11 80.6687 97.4489 83.1359L101.484 68.0775C100.802 70.6226 96.8858 69.1186 95.1891 68.664C93.4923 68.2093 90.3819 78.9692 92.2907 79.4806Z" fill="white"/>
<path d="M270.542 45.5658C268.83 46.5539 265.587 48.8405 264.31 46.6285L272.105 60.1296C270.787 57.8477 274.62 56.1421 276.141 55.2638C277.662 54.3855 272.253 44.5777 270.542 45.5658Z" fill="white"/>
<path d="M106.339 153.315C108.05 152.327 111.294 150.04 112.571 152.252L104.776 138.751C106.093 141.033 102.261 142.738 100.74 143.617C99.2183 144.495 104.627 154.303 106.339 153.315Z" fill="white"/>
<path d="M242.315 181.542C241.327 179.83 239.04 176.587 241.252 175.31L227.751 183.105C230.033 181.787 231.738 185.62 232.617 187.141C233.495 188.662 243.303 183.253 242.315 181.542Z" fill="white"/>
<path d="M134.566 17.3386C135.554 19.05 137.841 22.2936 135.629 23.5707L149.13 15.7759C146.848 17.0933 145.142 13.2608 144.264 11.7395C143.385 10.2183 133.578 15.6272 134.566 17.3386Z" fill="white"/>
<path d="M232.605 11.7328C231.617 13.4443 229.951 17.0463 227.739 15.7692L241.24 23.564C238.958 22.2466 241.425 18.8532 242.303 17.332C243.181 15.8107 233.593 10.0214 232.605 11.7328Z" fill="white"/>
<path d="M144.275 187.148C145.264 185.436 146.929 181.834 149.141 183.111L135.64 175.316C137.922 176.634 135.456 180.027 134.577 181.549C133.699 183.07 143.287 188.859 144.275 187.148Z" fill="white"/>
<path d="M276.148 143.605C274.436 142.617 270.834 140.951 272.111 138.739L264.316 152.24C265.634 149.958 269.027 152.425 270.549 153.303C272.07 154.181 277.859 144.593 276.148 143.605Z" fill="white"/>
<path d="M100.733 55.2754C102.444 56.2635 106.046 57.9292 104.769 60.1412L112.564 46.6401C111.247 48.922 107.853 46.4558 106.332 45.5775C104.811 44.6992 99.0214 54.2873 100.733 55.2754Z" fill="white"/>
<path d="M281.688 68.651C279.779 69.1625 276.054 70.5317 275.393 68.0645L279.428 83.123C278.746 80.5779 282.89 79.9223 284.586 79.4676C286.283 79.013 283.597 68.1395 281.688 68.651Z" fill="white"/>
<path d="M95.1925 130.229C97.1013 129.718 100.826 128.349 101.487 130.816L97.4523 115.758C98.1343 118.303 93.9909 118.958 92.2942 119.413C90.5974 119.867 93.2837 130.741 95.1925 130.229Z" fill="white"/>
<path d="M219.229 192.688C218.718 190.779 217.349 187.054 219.816 186.393L204.758 190.428C207.303 189.746 207.958 193.89 208.413 195.586C208.867 197.283 219.741 194.597 219.229 192.688Z" fill="white"/>
<path d="M157.651 6.19248C158.163 8.10131 159.532 11.8262 157.065 12.4872L172.123 8.45233C169.578 9.13429 168.922 4.9909 168.468 3.29417C168.013 1.59744 157.14 4.28366 157.651 6.19248Z" fill="white"/>
</svg>
